<?xml version="1.0" encoding="UTF-8" standalone="no"?>
<!-- Created with Inkscape (http://www.inkscape.org/) -->

<svg
   xmlns:dc="http://purl.org/dc/elements/1.1/"
   xmlns:cc="http://creativecommons.org/ns#"
   xmlns:rdf="http://www.w3.org/1999/02/22-rdf-syntax-ns#"
   xmlns:svg="http://www.w3.org/2000/svg"
   xmlns="http://www.w3.org/2000/svg"
   xmlns:sodipodi="http://sodipodi.sourceforge.net/DTD/sodipodi-0.dtd"
   xmlns:inkscape="http://www.inkscape.org/namespaces/inkscape"
   width="256"
   height="256"
   viewBox="0 0 256 256"
   id="svg2"
   version="1.1"
   inkscape:version="0.91 r13725"
   sodipodi:docname="default-user.svg">
  <defs
     id="defs4" />
  <sodipodi:namedview
     id="base"
     pagecolor="#ffffff"
     bordercolor="#666666"
     borderopacity="1.0"
     inkscape:pageopacity="0.0"
     inkscape:pageshadow="2"
     inkscape:zoom="1.979899"
     inkscape:cx="121.5722"
     inkscape:cy="101.17182"
     inkscape:document-units="px"
     inkscape:current-layer="layer1"
     showgrid="true"
     fit-margin-top="0"
     fit-margin-left="0"
     fit-margin-right="0"
     fit-margin-bottom="0"
     inkscape:showpageshadow="false"
     showborder="true"
     units="px"
     inkscape:window-width="1531"
     inkscape:window-height="1365"
     inkscape:window-x="1379"
     inkscape:window-y="163"
     inkscape:window-maximized="0">
    <inkscape:grid
       type="xygrid"
       id="grid4684"
       empspacing="8"
       dotted="false"
       enabled="true" />
  </sodipodi:namedview>
  <metadata
     id="metadata7">
    <rdf:RDF>
      <cc:Work
         rdf:about="">
        <dc:format>image/svg+xml</dc:format>
        <dc:type
           rdf:resource="http://purl.org/dc/dcmitype/StillImage" />
        <dc:title></dc:title>
      </cc:Work>
    </rdf:RDF>
  </metadata>
  <g
     inkscape:label="Layer 1"
     inkscape:groupmode="layer"
     id="layer1"
     transform="translate(0,-796.36219)">
    <rect
       style="opacity:1;fill:#a0a0a0;fill-opacity:1;stroke:none;stroke-width:2;stroke-linecap:butt;stroke-linejoin:round;stroke-miterlimit:4;stroke-dasharray:none;stroke-opacity:1"
       id="rect5318-5-6"
       width="16"
       height="256"
       x="916.36218"
       y="-256"
       transform="matrix(0,1,-1,0,0,0)" />
    <rect
       style="opacity:1;fill:#a0a0a0;fill-opacity:1;stroke:none;stroke-width:2;stroke-linecap:butt;stroke-linejoin:round;stroke-miterlimit:4;stroke-dasharray:none;stroke-opacity:1"
       id="rect5318"
       width="16"
       height="256"
       x="0"
       y="796.36218" />
    <rect
       style="opacity:1;fill:#a0a0a0;fill-opacity:1;stroke:none;stroke-width:2;stroke-linecap:butt;stroke-linejoin:round;stroke-miterlimit:4;stroke-dasharray:none;stroke-opacity:1"
       id="rect5318-7"
       width="16"
       height="256"
       x="239.93654"
       y="796.9942" />
    <rect
       style="opacity:1;fill:#a0a0a0;fill-opacity:1;stroke:none;stroke-width:2;stroke-linecap:butt;stroke-linejoin:round;stroke-miterlimit:4;stroke-dasharray:none;stroke-opacity:1"
       id="rect5318-7-5"
       width="16"
       height="256"
       x="120"
       y="796.36218" />
    <path
       inkscape:connector-curvature="0"
       style="fill:#dededd"
       d="m 128,828.36219 c 53.01848,0 96,42.98161 96,95.97747 l -192,0 c 0,-52.99586 42.981927,-95.97747 96,-95.97747 z"
       id="path5153" />
    <path
       inkscape:connector-curvature="0"
       style="fill:#959592;fill-opacity:1"
       d="m 224,924.33925 c 0,53.04133 -42.98152,96.02295 -96,96.02295 -53.018486,0 -96,-42.98162 -96,-96.02295 l 192,0 z"
       id="path5155" />
    <path
       id="path5161"
       d="m 45.066539,914.41965 c 0,0 -0.09508,-0.42742 -0.195936,-1.23225 -0.106236,-0.80524 -0.223632,-1.98789 -0.270343,-3.49048 -0.05787,-1.50507 -0.0339,-3.32637 0.101689,-5.41182 0.141785,-2.08296 0.404686,-4.42841 0.869311,-6.95615 0.439823,-2.53684 1.109064,-5.24523 1.957294,-8.08259 0.220738,-0.70562 0.456357,-1.41785 0.698177,-2.13918 0.122357,-0.36005 0.236033,-0.7267 0.368724,-1.08799 0.136824,-0.35963 0.274476,-0.72132 0.412954,-1.08509 0.277783,-0.72794 0.555152,-1.46746 0.85815,-2.20449 0.31788,-0.73001 0.632866,-1.472 0.970173,-2.21152 0.167001,-0.37079 0.334828,-0.74365 0.503068,-1.11733 0.182295,-0.36749 0.36583,-0.73663 0.549365,-1.107 0.375751,-0.73828 0.754395,-1.48193 1.135107,-2.22971 0.830455,-1.46043 1.647268,-2.95889 2.584785,-4.40403 0.938344,-1.4443 1.876274,-2.90969 2.947309,-4.29654 0.529523,-0.69694 1.028458,-1.41868 1.588157,-2.09743 l 1.693979,-2.0284 0.859804,-1.00366 0.905687,-0.96645 c 0.60145,-0.6461 1.218194,-1.27649 1.829977,-1.90853 0.604757,-0.63824 1.272758,-1.21778 1.915131,-1.81386 0.652293,-0.58739 1.283505,-1.19091 1.94696,-1.75557 1.366592,-1.08922 2.690607,-2.19953 4.086962,-3.18707 0.706031,-0.48157 1.407929,-0.96067 2.104866,-1.43604 0.69239,-0.47868 1.391807,-0.93504 2.118094,-1.34179 0.714712,-0.42205 1.43149,-0.82674 2.139589,-1.22564 0.353429,-0.19924 0.705204,-0.39766 1.055326,-0.59484 0.355083,-0.1889 0.72422,-0.35177 1.081782,-0.52663 0.719259,-0.34475 1.429838,-0.68247 2.136696,-1.00324 0.707271,-0.31953 1.388914,-0.66098 2.108999,-0.90817 1.41661,-0.53573 2.791469,-1.0421 4.128299,-1.49309 1.366179,-0.38898 2.684821,-0.74282 3.948071,-1.06318 0.315399,-0.079 0.627905,-0.15667 0.93669,-0.23397 0.315399,-0.057 0.627078,-0.11367 0.93545,-0.16989 0.617158,-0.10748 1.2153,-0.21619 1.801868,-0.30755 0.584088,-0.0909 1.152881,-0.1794 1.705967,-0.26579 0.276543,-0.0389 0.54688,-0.0835 0.81599,-0.11574 0.27282,-0.0199 0.54151,-0.0393 0.80565,-0.0583 1.05822,-0.0661 2.03294,-0.15129 2.94317,-0.17775 0.90693,-0.0364 1.72747,-0.0881 2.4922,-0.0277 0.75646,0.0298 1.42859,0.0637 2.01433,0.10913 0.58327,0.036 1.07931,0.0818 1.48069,0.12111 0.80193,0.0761 1.22894,0.14013 1.22894,0.14013 0,0 -0.36294,0.25547 -1.04293,0.69033 -0.33979,0.21867 -0.75729,0.48571 -1.24837,0.78168 -0.4886,0.30548 -1.0516,0.63824 -1.67786,1.00283 -0.62914,0.35591 -1.30665,0.79408 -2.03831,1.26573 -0.72835,0.48075 -1.52574,0.94414 -2.36074,1.46415 -0.84699,0.48571 -1.69398,1.12354 -2.60793,1.70639 -0.453468,0.29473 -0.918093,0.59731 -1.394292,0.90693 -0.237273,0.15129 -0.477439,0.30465 -0.720086,0.45925 -0.234792,0.16907 -0.472478,0.3402 -0.712645,0.51299 -0.958599,0.68743 -1.953987,1.38313 -2.982858,2.08007 -0.997869,0.75853 -2.016819,1.54227 -3.072145,2.31114 -0.533244,0.37451 -1.037966,0.81185 -1.558808,1.23183 -0.517123,0.4266 -1.045406,0.84493 -1.578237,1.26532 -0.264141,0.21372 -0.538204,0.41461 -0.797385,0.64073 -0.258768,0.22569 -0.519189,0.45263 -0.780437,0.6804 -0.52167,0.45553 -1.04706,0.91354 -1.584437,1.36122 -0.264142,0.23025 -0.543165,0.44106 -0.797799,0.68785 -0.255461,0.24595 -0.515882,0.48653 -0.77713,0.7267 -0.522497,0.47909 -1.048713,0.96149 -1.578237,1.44679 -0.547298,0.46007 -1.033004,1.00448 -1.55302,1.50796 -0.519603,0.50348 -1.041686,1.00945 -1.566249,1.51748 -1.008616,1.05698 -2.0255,2.12264 -3.046103,3.19244 -0.492321,0.5535 -0.981334,1.11113 -1.487296,1.65388 l -0.752328,0.82054 -0.716366,0.85774 -1.457119,1.6944 c -0.477853,0.57127 -0.938757,1.15991 -1.409582,1.73697 l -0.703552,0.86766 -0.357562,0.42866 -0.338135,0.44437 c -0.452223,0.59112 -0.896593,1.18595 -1.359151,1.7655 -0.470826,0.57293 -0.8875,1.18512 -1.327322,1.77707 -0.43817,0.59318 -0.885433,1.17686 -1.312855,1.77087 -0.423701,0.59897 -0.844923,1.19422 -1.262837,1.78533 -0.212471,0.29473 -0.424528,0.58823 -0.635345,0.88089 -0.202137,0.29928 -0.40386,0.59732 -0.604343,0.89412 -0.398073,0.59649 -0.812267,1.17851 -1.21654,1.76053 -0.391459,0.59194 -0.779197,1.1781 -1.162802,1.75806 -0.789945,1.15164 -1.500523,2.32064 -2.249545,3.43715 -1.429424,2.26691 -2.810071,4.43338 -4.041078,6.48079 -1.25829,2.03708 -2.378515,3.94642 -3.409453,5.6495 -1.022258,1.72912 -1.913477,3.23626 -2.647204,4.4776 -0.749849,1.2707 -1.338897,2.26898 -1.740276,2.9498 -0.412128,0.69446 -0.632452,1.06442 -0.632452,1.06442 z"
       style="fill:#ffffff"
       inkscape:connector-curvature="0" />
    <path
       id="path5165"
       d="m 143.95597,1003.6894 c 0,0 0.34847,-0.2534 1.00118,-0.7288 0.64072,-0.4625 1.58072,-1.1413 2.777,-2.0048 1.16859,-0.8453 2.58727,-1.87174 4.21469,-3.04901 1.60056,-1.18389 3.39912,-2.47525 5.31136,-3.91584 1.92546,-1.41454 3.9551,-2.98947 6.08105,-4.62145 1.04251,-0.84906 2.14124,-1.66422 3.21517,-2.5571 0.54027,-0.44147 1.08922,-0.88088 1.64354,-1.31988 0.54234,-0.45636 1.08385,-0.92223 1.64107,-1.37362 0.27696,-0.22694 0.55515,-0.45512 0.83459,-0.68413 0.272,-0.23727 0.54482,-0.47496 0.81847,-0.71389 0.55019,-0.47082 1.1041,-0.94495 1.66132,-1.4224 0.55226,-0.48033 1.09212,-0.97968 1.64231,-1.47035 0.54854,-0.49273 1.11981,-0.96356 1.64727,-1.48523 0.53448,-0.51423 1.08591,-1.0111 1.6328,-1.51623 l 0.4113,-0.37782 0.39394,-0.39559 0.79904,-0.78044 c 0.53159,-0.52167 1.07475,-1.03549 1.59973,-1.56377 l 1.55302,-1.60718 0.78829,-0.79243 0.74778,-0.82508 c 0.49398,-0.5535 1.00407,-1.09212 1.51003,-1.63322 0.971,-1.11526 1.93828,-2.22557 2.89812,-3.32761 0.4576,-0.5688 0.91313,-1.13552 1.36659,-1.69936 0.45347,-0.56424 0.95075,-1.09832 1.35833,-1.68571 0.43445,-0.5721 0.86642,-1.14048 1.29508,-1.70473 0.21536,-0.28275 0.43073,-0.56384 0.65229,-0.84079 0.22281,-0.27613 0.40675,-0.57334 0.61178,-0.85774 0.39601,-0.57624 0.80359,-1.14131 1.2091,-1.70308 0.20297,-0.2815 0.40469,-0.56135 0.60559,-0.83996 0.20131,-0.27903 0.37616,-0.57004 0.56466,-0.85319 0.36913,-0.56963 0.73744,-1.13429 1.11443,-1.68861 0.36997,-0.55764 0.75895,-1.09998 1.08261,-1.66588 0.668,-1.12147 1.35461,-2.20862 2.01806,-3.27222 0.59938,-1.08881 1.20001,-2.14414 1.79608,-3.16227 0.15005,-0.25504 0.29845,-0.5072 0.4452,-0.75687 0.13186,-0.25588 0.26207,-0.50886 0.39104,-0.75936 0.26456,-0.50266 0.52291,-0.99332 0.77465,-1.472 0.49646,-0.96398 1.05326,-1.86595 1.45878,-2.75428 0.44065,-0.87923 0.8288,-1.71589 1.2401,-2.48558 0.40221,-0.77176 0.7763,-1.48688 1.07269,-2.14621 0.30506,-0.65767 0.5845,-1.24837 0.84368,-1.76343 0.24967,-0.51629 0.47703,-0.95694 0.66304,-1.31492 0.37038,-0.71719 0.59112,-1.10245 0.59112,-1.10245 0,0 0.10334,0.41957 0.25298,1.21075 0.0761,0.39601 0.16741,0.88585 0.25711,1.46333 0.0996,0.57871 0.19511,1.24506 0.29432,1.99574 0.13021,0.75563 0.1546,1.57782 0.20214,2.48434 0.0574,0.90858 0.0628,1.88703 0.0942,2.9469 0.005,0.26497 0.0108,0.53449 0.0161,0.80772 -0.007,0.27117 -0.0269,0.544 -0.0401,0.82343 -0.0347,0.55888 -0.0707,1.13346 -0.10748,1.72333 -0.0368,0.59236 -0.0901,1.19836 -0.14013,1.82296 -0.0273,0.31209 -0.055,0.6279 -0.0827,0.94702 -0.0484,0.31458 -0.0971,0.63287 -0.14675,0.95406 -0.20255,1.28723 -0.43321,2.63274 -0.69487,4.0291 -0.32573,1.37238 -0.70314,2.78858 -1.10617,4.2486 -0.17981,0.73992 -0.45677,1.45009 -0.70975,2.18382 -0.25422,0.73373 -0.52498,1.47242 -0.80193,2.2202 -0.14137,0.37244 -0.26952,0.75522 -0.42494,1.12601 -0.16411,0.36666 -0.32946,0.73539 -0.49522,1.10576 -0.33193,0.742 -0.66883,1.49268 -1.02308,2.24335 -0.33814,0.76101 -0.72794,1.49929 -1.1409,2.23302 -0.40923,0.73786 -0.82136,1.48068 -1.23596,2.22847 -0.85485,1.48151 -1.83825,2.90225 -2.79685,4.36351 -0.50141,0.71265 -1.04416,1.39718 -1.56873,2.10074 -0.53448,0.69446 -1.04995,1.4133 -1.6299,2.07428 -0.57293,0.66717 -1.14379,1.33972 -1.7316,1.99822 l -0.87882,0.99084 -0.92015,0.94868 -1.86346,1.8738 c -0.62419,0.61964 -1.29715,1.18306 -1.942,1.77459 -1.28227,1.19463 -2.65506,2.2636 -4.00677,3.33092 -1.35254,1.06649 -2.76915,2.01848 -4.1469,2.97956 -0.70975,0.44809 -1.41537,0.8937 -2.11561,1.336 -0.35178,0.21702 -0.70232,0.43363 -1.05161,0.64899 -0.35674,0.20214 -0.71223,0.40345 -1.06649,0.60393 -0.7052,0.40428 -1.41495,0.78623 -2.11272,1.17025 -0.70603,0.36955 -1.41661,0.7143 -2.11603,1.05781 -0.34929,0.17155 -0.69693,0.34185 -1.04251,0.51133 -0.34764,0.16535 -0.70231,0.31251 -1.04954,0.46752 -0.69569,0.30714 -1.38312,0.60724 -2.06559,0.89247 -2.74724,1.10616 -5.38246,2.02216 -7.86804,2.69436 -2.474,0.6961 -4.78596,1.1739 -6.8466,1.5071 -2.06394,0.3274 -3.87532,0.5192 -5.37956,0.6006 -1.50052,0.092 -2.68854,0.084 -3.50039,0.053 -0.81062,-0.026 -1.24507,-0.082 -1.24507,-0.082 z"
       style="fill:#868484;fill-opacity:1"
       inkscape:connector-curvature="0" />
    <g
       id="Layer_1"
       transform="matrix(0.41336726,0,0,0.41336815,32.001653,828.35971)" />
    <rect
       style="opacity:1;fill:#a0a0a0;fill-opacity:1;stroke:none;stroke-width:2;stroke-linecap:butt;stroke-linejoin:round;stroke-miterlimit:4;stroke-dasharray:none;stroke-opacity:1"
       id="rect5318-5"
       width="16"
       height="256"
       x="1036.3622"
       y="-256"
       transform="matrix(0,1,-1,0,0,0)" />
    <rect
       style="opacity:1;fill:#a0a0a0;fill-opacity:1;stroke:none;stroke-width:2;stroke-linecap:butt;stroke-linejoin:round;stroke-miterlimit:4;stroke-dasharray:none;stroke-opacity:1"
       id="rect5318-5-2"
       width="16"
       height="256"
       x="796.36218"
       y="-256"
       transform="matrix(0,1,-1,0,0,0)" />
  </g>
</svg>
