<?xml version="1.0" encoding="UTF-8" standalone="no"?>
<!-- Created with Inkscape (http://www.inkscape.org/) -->

<svg
   width="130.03305mm"
   height="131.40915mm"
   viewBox="0 0 130.03305 131.40915"
   version="1.1"
   id="svg1"
   xmlns:xlink="http://www.w3.org/1999/xlink"
   xmlns="http://www.w3.org/2000/svg"
   xmlns:svg="http://www.w3.org/2000/svg">
  <defs
     id="defs1">
    <radialGradient
       id="radial-gradient"
       cx="252.50999"
       cy="508.54001"
       fx="176.84"
       fy="600.04999"
       r="201.53999"
       gradientUnits="userSpaceOnUse">
      <stop
         offset=".36"
         stop-color="#c9eaf6"
         id="stop61" />
      <stop
         offset=".79"
         stop-color="#bd5ba3"
         id="stop63" />
    </radialGradient>
    <radialGradient
       id="radial-gradient-2"
       cx="1236.61"
       cy="868.27002"
       fx="1337.51"
       fy="919.08002"
       r="191.56"
       gradientTransform="matrix(1.07,0,0,1.07,-649.97,-447.48)"
       gradientUnits="userSpaceOnUse">
      <stop
         offset=".41"
         stop-color="#c9eaf6"
         id="stop66" />
      <stop
         offset=".88"
         stop-color="#bd5ba3"
         id="stop68" />
    </radialGradient>
    <radialGradient
       id="radial-gradient-3"
       cx="574.85999"
       cy="856.39001"
       fx="558.82001"
       fy="971.45001"
       r="260.01999"
       gradientTransform="translate(0,29.73)"
       gradientUnits="userSpaceOnUse">
      <stop
         offset=".28"
         stop-color="#a3ddf2"
         id="stop71" />
      <stop
         offset=".44"
         stop-color="#a3d9f0"
         id="stop73" />
      <stop
         offset=".56"
         stop-color="#a5d0ea"
         id="stop75" />
      <stop
         offset=".66"
         stop-color="#a8c0e0"
         id="stop77" />
      <stop
         offset=".76"
         stop-color="#ada9d2"
         id="stop79" />
      <stop
         offset=".86"
         stop-color="#b38bc0"
         id="stop81" />
      <stop
         offset=".94"
         stop-color="#ba67aa"
         id="stop83" />
      <stop
         offset=".97"
         stop-color="#bd5ba3"
         id="stop85" />
    </radialGradient>
    <radialGradient
       id="radial-gradient-4"
       cx="406.62"
       cy="694.33002"
       fx="349.29001"
       fy="809.67999"
       r="188.12"
       gradientUnits="userSpaceOnUse">
      <stop
         offset=".27"
         stop-color="#c9eaf6"
         id="stop88" />
      <stop
         offset=".65"
         stop-color="#bd5ba3"
         id="stop90" />
    </radialGradient>
    <radialGradient
       id="radial-gradient-6"
       cx="276.98001"
       cy="100.46"
       fx="276.98001"
       fy="59.419998"
       r="97.599998"
       gradientUnits="userSpaceOnUse">
      <stop
         offset=".54"
         stop-color="#c9eaf6"
         id="stop94" />
      <stop
         offset=".96"
         stop-color="#bd5ba3"
         id="stop96" />
    </radialGradient>
    <radialGradient
       id="radial-gradient-7"
       cx="170.45"
       cy="158.42"
       fx="139.39"
       fy="74.839996"
       r="118.63"
       gradientUnits="userSpaceOnUse">
      <stop
         offset=".62"
         stop-color="#c9eaf6"
         id="stop99" />
      <stop
         offset=".88"
         stop-color="#bd5ba3"
         id="stop101" />
    </radialGradient>
    <radialGradient
       id="radial-gradient-8"
       cx="123.02"
       cy="308.57001"
       fx="37.169998"
       fy="315.76001"
       r="99.389999"
       gradientUnits="userSpaceOnUse">
      <stop
         offset=".51"
         stop-color="#c9eaf6"
         id="stop104" />
      <stop
         offset=".88"
         stop-color="#bd5ba3"
         id="stop106" />
    </radialGradient>
    <radialGradient
       id="radial-gradient-9"
       cx="616.26001"
       cy="120.16"
       fx="639.15997"
       fy="54.509998"
       r="99.75"
       gradientUnits="userSpaceOnUse">
      <stop
         offset=".53"
         stop-color="#c9eaf6"
         id="stop109" />
      <stop
         offset="1"
         stop-color="#bd5ba3"
         id="stop111" />
    </radialGradient>
    <radialGradient
       id="radial-gradient-10"
       cx="725.90997"
       cy="201.19"
       fx="785.48999"
       fy="146.46001"
       r="134.33"
       gradientUnits="userSpaceOnUse">
      <stop
         offset=".51"
         stop-color="#c9eaf6"
         id="stop114" />
      <stop
         offset="1"
         stop-color="#bd5ba3"
         id="stop116" />
    </radialGradient>
    <radialGradient
       id="radial-gradient-11"
       cx="758.14001"
       cy="316.82999"
       fx="839.60999"
       fy="402.31"
       r="118.09"
       gradientUnits="userSpaceOnUse">
      <stop
         offset=".55"
         stop-color="#c9eaf6"
         id="stop119" />
      <stop
         offset=".88"
         stop-color="#bd5ba3"
         id="stop121" />
    </radialGradient>
    <radialGradient
       id="radial-gradient-12"
       cx="433.44"
       cy="487.42999"
       fx="312.95999"
       fy="523.27002"
       r="249.13"
       gradientTransform="matrix(-0.53479485,-0.84498193,0.701335,-0.44387973,324.64,1069.24)"
       gradientUnits="userSpaceOnUse">
      <stop
         offset=".37"
         stop-color="#c9eaf6"
         id="stop124" />
      <stop
         offset=".6"
         stop-color="#97d9ea"
         id="stop126" />
      <stop
         offset=".92"
         stop-color="#bd5ba3"
         id="stop128" />
    </radialGradient>
    <radialGradient
       id="radial-gradient-13"
       cx="419.62"
       cy="294.31"
       fx="513.53003"
       fy="332.10999"
       r="280.64999"
       gradientTransform="matrix(0.99992749,0.01204248,-0.00746634,0.61995504,2.22,106.95)"
       gradientUnits="userSpaceOnUse">
      <stop
         offset=".18"
         stop-color="#c9eaf6"
         id="stop131" />
      <stop
         offset=".3"
         stop-color="#c4e8f5"
         id="stop133" />
      <stop
         offset=".42"
         stop-color="#b8e4f2"
         id="stop135" />
      <stop
         offset=".55"
         stop-color="#a4dded"
         id="stop137" />
      <stop
         offset=".61"
         stop-color="#97d9ea"
         id="stop139" />
      <stop
         offset=".67"
         stop-color="#9bd5e8"
         id="stop141" />
      <stop
         offset=".73"
         stop-color="#a7cbe2"
         id="stop143" />
      <stop
         offset=".79"
         stop-color="#bbbbd8"
         id="stop145" />
      <stop
         offset=".85"
         stop-color="#d7a5cb"
         id="stop147" />
      <stop
         offset=".86"
         stop-color="#dca1c9"
         id="stop149" />
      <stop
         offset="1"
         stop-color="#bd5ba3"
         id="stop151" />
    </radialGradient>
    <radialGradient
       id="radial-gradient-14"
       cx="-25079.76"
       cy="-19510.221"
       fx="-25088.301"
       fy="-19518.42"
       r="60.439999"
       gradientTransform="matrix(0.19838775,0.02534367,-0.02534367,0.19838775,5036.14,5150.32)"
       gradientUnits="userSpaceOnUse">
      <stop
         offset=".28"
         stop-color="#fff"
         id="stop154" />
      <stop
         offset=".41"
         stop-color="#fafafa"
         id="stop156" />
      <stop
         offset=".54"
         stop-color="#eee"
         id="stop158" />
      <stop
         offset=".67"
         stop-color="#dadada"
         id="stop160" />
      <stop
         offset=".8"
         stop-color="#bebebe"
         id="stop162" />
      <stop
         offset=".93"
         stop-color="#9a9999"
         id="stop164" />
      <stop
         offset=".95"
         stop-color="#959494"
         id="stop166" />
    </radialGradient>
    <radialGradient
       id="New_Gradient_Swatch_1"
       cx="-343.13"
       cy="1209.63"
       fx="-343.13"
       fy="1209.63"
       r="12.32"
       gradientTransform="rotate(7.28,4918.8488,7192.2319)"
       gradientUnits="userSpaceOnUse">
      <stop
         offset=".07"
         stop-color="#919191"
         id="stop171" />
      <stop
         offset=".21"
         stop-color="#828283"
         id="stop173" />
      <stop
         offset=".49"
         stop-color="#5c5c5e"
         id="stop175" />
      <stop
         offset=".87"
         stop-color="#1e1e23"
         id="stop177" />
      <stop
         offset="1"
         stop-color="#08080e"
         id="stop179" />
    </radialGradient>
    <radialGradient
       xlink:href="#radial-gradient"
       id="radialGradient47"
       gradientUnits="userSpaceOnUse"
       cx="252.50999"
       cy="508.54001"
       fx="176.84"
       fy="600.04999"
       r="201.53999" />
    <radialGradient
       xlink:href="#radial-gradient-2"
       id="radialGradient48"
       gradientUnits="userSpaceOnUse"
       gradientTransform="matrix(1.07,0,0,1.07,-649.97,-447.48)"
       cx="1236.61"
       cy="868.27002"
       fx="1337.51"
       fy="919.08002"
       r="191.56" />
    <radialGradient
       xlink:href="#radial-gradient-3"
       id="radialGradient49"
       gradientUnits="userSpaceOnUse"
       gradientTransform="translate(0,29.73)"
       cx="574.85999"
       cy="856.39001"
       fx="558.82001"
       fy="971.45001"
       r="260.01999" />
    <radialGradient
       xlink:href="#radial-gradient-4"
       id="radialGradient50"
       gradientUnits="userSpaceOnUse"
       cx="406.62"
       cy="694.33002"
       fx="349.29001"
       fy="809.67999"
       r="188.12" />
    <radialGradient
       xlink:href="#radial-gradient-2"
       id="radialGradient51"
       cx="650.22998"
       cy="648"
       fx="714.65997"
       fy="722.81"
       r="137.34" />
    <radialGradient
       xlink:href="#radial-gradient-6"
       id="radialGradient52"
       gradientUnits="userSpaceOnUse"
       cx="276.98001"
       cy="100.46"
       fx="276.98001"
       fy="59.419998"
       r="97.599998" />
    <radialGradient
       xlink:href="#radial-gradient-7"
       id="radialGradient53"
       gradientUnits="userSpaceOnUse"
       cx="170.45"
       cy="158.42"
       fx="139.39"
       fy="74.839996"
       r="118.63" />
    <radialGradient
       xlink:href="#radial-gradient-8"
       id="radialGradient54"
       gradientUnits="userSpaceOnUse"
       cx="123.02"
       cy="308.57001"
       fx="37.169998"
       fy="315.76001"
       r="99.389999" />
    <radialGradient
       xlink:href="#radial-gradient-9"
       id="radialGradient55"
       gradientUnits="userSpaceOnUse"
       cx="616.26001"
       cy="120.16"
       fx="639.15997"
       fy="54.509998"
       r="99.75" />
    <radialGradient
       xlink:href="#radial-gradient-10"
       id="radialGradient56"
       gradientUnits="userSpaceOnUse"
       cx="725.90997"
       cy="201.19"
       fx="785.48999"
       fy="146.46001"
       r="134.33" />
    <radialGradient
       xlink:href="#radial-gradient-11"
       id="radialGradient57"
       gradientUnits="userSpaceOnUse"
       cx="758.14001"
       cy="316.82999"
       fx="839.60999"
       fy="402.31"
       r="118.09" />
    <radialGradient
       xlink:href="#radial-gradient-12"
       id="radialGradient58"
       gradientUnits="userSpaceOnUse"
       gradientTransform="matrix(-0.53479485,-0.84498193,0.701335,-0.44387973,324.64,1069.24)"
       cx="433.44"
       cy="487.42999"
       fx="312.95999"
       fy="523.27002"
       r="249.13" />
    <radialGradient
       xlink:href="#radial-gradient-13"
       id="radialGradient59"
       gradientUnits="userSpaceOnUse"
       gradientTransform="matrix(0.99992749,0.01204248,-0.00746634,0.61995504,2.22,106.95)"
       cx="419.62"
       cy="294.31"
       fx="513.53003"
       fy="332.10999"
       r="280.64999" />
    <radialGradient
       xlink:href="#radial-gradient-14"
       id="radialGradient60"
       gradientUnits="userSpaceOnUse"
       gradientTransform="matrix(0.19838775,0.02534367,-0.02534367,0.19838775,5036.14,5150.32)"
       cx="-25079.76"
       cy="-19510.221"
       fx="-25088.301"
       fy="-19518.42"
       r="60.439999" />
    <radialGradient
       xlink:href="#radial-gradient-14"
       id="radialGradient61"
       cx="-24802.27"
       cy="-19655.24"
       fx="-24810.811"
       fy="-19663.439"
       r="60.439999" />
    <radialGradient
       xlink:href="#radial-gradient-14"
       id="radialGradient62"
       cx="-24583.461"
       cy="-19823.66"
       fx="-24592"
       fy="-19831.85"
       r="60.439999" />
    <radialGradient
       xlink:href="#New_Gradient_Swatch_1"
       id="radialGradient63"
       gradientUnits="userSpaceOnUse"
       gradientTransform="rotate(7.28,4918.8488,7192.2319)"
       cx="-343.13"
       cy="1209.63"
       fx="-343.13"
       fy="1209.63"
       r="12.32" />
    <radialGradient
       xlink:href="#New_Gradient_Swatch_1"
       id="radialGradient64"
       cx="-284.94"
       cy="1187.24"
       fx="-284.94"
       fy="1187.24"
       r="12.32" />
    <radialGradient
       xlink:href="#New_Gradient_Swatch_1"
       id="radialGradient65"
       cx="-233.14999"
       cy="1153.6899"
       fx="-233.14999"
       fy="1153.6899"
       r="12.32" />
  </defs>
  <g
     id="layer1"
     transform="translate(-39.888448,-83.107677)">
    <g
       id="use661"
       transform="matrix(0.14552083,0,0,0.14552083,39.885538,83.106222)">
      <g
         id="g46">
        <path
           class="cls-20"
           d="m 305.37,433.89 c -50.42,24.57 -94.27,71.08 -115.89,123.83 -23.36,6.92 -64.59,33.29 -51.09,38.36 9.06,-2.69 18.5,-4.51 27.63,-7.05 -6.86,8.92 -11.73,19.45 -14.08,30.55 -0.98,4.63 -0.27,11.18 4.32,11.75 2.59,0.32 4.85,-1.66 6.74,-3.51 8.01,-7.85 16.01,-15.71 24.02,-23.56 3.39,-3.32 6.97,-6.56 11.28,-8.45 13.69,-6.01 12.16,29.32 27.41,21.17 3.62,-1.94 3.19,-7.32 2.28,-11.4 -3.15,-14.02 -6.71,-26.89 -9.86,-40.92 l -1.08,0.46 0.06,-0.62 c 22.46,-34.09 57.62,-59.19 96.65,-68.91 l 45.92,-34.06 -54.3,-27.65 z"
           id="path1"
           style="fill:url(#radialGradient47);stroke:#010101;stroke-width:3.36px;stroke-miterlimit:10" />
        <path
           class="cls-11"
           d="m 806.68,539.18 c -1.75,-2.87 -4.8,-4.6 -7.76,-6.13 -20.3,-10.53 -42.38,-17.47 -64.97,-20.43 l -0.85,-0.41 0.91,-0.9 C 719.8,479.72 692.86,458.49 662.55,442.61 632.24,426.73 596.86,418.19 562.2,418.69 l -32.18,41.71 53.53,12.07 c 47.09,-4.21 97.48,24.36 127.03,61.98 l 0.17,-0.16 0.93,2.3 c -1.94,9.81 -3.87,19.63 -5.81,29.44 -0.56,2.86 -1.07,6.04 0.46,8.5 3.02,4.83 10.8,2.31 14.11,-2.32 3.31,-4.63 4.65,-10.71 8.82,-14.57 3.99,-3.7 9.38,-4.32 14.73,-3.15 l -0.13,0.38 c -2.1,3.85 -2.63,6.95 -1.54,11.22 1.09,4.27 4.62,8.01 8.92,8.49 4.3,0.48 8.94,-2.07 9.05,-6.48 l -3.18,-4.75 c 6.92,5.59 14.18,10.92 22.52,13.74 3.94,1.33 9.36,0.99 10.88,-2.94 0.98,-2.53 -0.17,-5.34 -1.35,-7.78 -3.59,-7.42 -7.65,-14.6 -12.15,-21.48 7.03,1.33 14.05,2.66 21.08,4 2.54,0.48 5.38,0.9 7.5,-0.59 2.73,-1.91 2.83,-6.24 1.07,-9.11 z"
           id="path2"
           style="fill:url(#radialGradient48);stroke:#010101;stroke-width:3.6px;stroke-miterlimit:10" />
        <path
           class="cls-31"
           d="m 612.97,553.53 c 35.68,68.88 51.68,163.23 16.78,233.4 -34.9,70.17 -111.39,116.34 -188.23,113.63 -3.8,-0.13 -8.33,-0.86 -9.93,-4.39 -2.52,-5.58 4.52,-10.33 9.98,-12.87 30,-13.95 48.58,-47.45 50.93,-81.11 2.36,-33.66 -4.42,-65.65 -22.26,-94.02 C 452.4,679.8 426.32,649.06 403,625.23 l 113.46,24.07 c 27.51,0.95 45.53,-24.66 96.51,-95.77 z"
           id="path3"
           style="fill:url(#radialGradient49)" />
        <path
           class="cls-39"
           d="m 610.91,554.74 c 12.2,23.61 21.46,48.74 27.64,74.59 6.28,26.28 9.35,53.44 7.95,80.47 -1.4,27.03 -7.01,52.02 -18.57,75.44 -11.56,23.42 -26.4,42.4 -44.8,59.17 -18.4,16.77 -39.42,30.06 -62.27,39.31 -22.73,9.2 -47.1,14.39 -71.66,14.55 -3.02,0.02 -6.07,0.05 -9.07,-0.19 -2.22,-0.18 -5.4,-0.66 -6.4,-2.99 -1,-2.33 1.13,-4.57 2.79,-5.97 2.27,-1.91 5,-3.13 7.64,-4.43 10.95,-5.37 20.5,-13.46 28.06,-22.99 7.56,-9.53 13.63,-20.99 17.5,-32.87 4.1,-12.57 5.58,-25.65 5.63,-38.83 0.1,-28.63 -7.09,-57.02 -22.08,-81.51 -7.59,-12.41 -16.25,-24.19 -25.22,-35.64 -8.97,-11.45 -19,-23.22 -29.12,-34.29 -4.66,-5.1 -9.41,-10.11 -14.24,-15.05 -2.16,-2.21 -5.54,1.18 -3.38,3.38 20.9,21.37 40.58,44.18 57.72,68.69 8.37,11.97 16.09,24.34 21.4,38 5.31,13.66 8.38,27.47 9.56,41.75 1.18,14.28 0.96,27.9 -1.96,41.39 -2.66,12.34 -7.45,24.2 -14.34,34.79 -6.89,10.59 -15.58,19.45 -26.18,25.87 -5.11,3.1 -11.17,5.01 -15.45,9.32 -1.98,2 -3.56,4.63 -3.37,7.54 0.19,2.91 2.09,5.65 4.78,7 2.69,1.35 5.65,1.6 8.56,1.7 3.07,0.1 6.14,0.12 9.22,0.07 6.3,-0.11 12.6,-0.55 18.86,-1.29 12.41,-1.48 24.66,-4.1 36.58,-7.85 23.97,-7.54 46.49,-19.45 66.36,-34.8 19.97,-15.43 37.23,-34.38 50.43,-55.91 13.2,-21.53 22.33,-47.43 25.91,-73.49 3.72,-27.11 2.51,-54.7 -2.12,-81.62 -4.63,-26.92 -12.82,-53.42 -23.94,-78.48 -2.59,-5.84 -5.36,-11.59 -8.29,-17.26 -1.42,-2.74 -5.55,-0.32 -4.13,2.42 v 0 z"
           id="path4"
           style="fill:#010101" />
        <path
           class="cls-22"
           d="m 653.33,233.77 c -3.88,6.47 -11.79,7.86 -13.6,15.22 -1.8,7.37 -1.17,15.76 3.45,21.7 4.69,6.05 12.58,8.52 20.1,9.1 13.06,1 26.42,-2.87 37.02,-10.74 4.72,-3.5 8.95,-7.79 14.2,-10.37 12.23,-6.02 38.41,-11.92 38.41,-11.92 l -13.71,-8.39 33.05,-37.37 -17.99,6.94 26.3,-44.13 -17.05,9.5 20.96,-55.12 -22.39,15.8 9.11,-49.69 -16.84,17.82 c 0,0 -6.94,-33.6 -9.54,-54.5 l -7.23,37.3 -6.87,-14.05 1.19,58.75 -10.12,-25.12 -4.48,77.55 -7.3,-23.57 -10.18,43.95 c 0,0 -6.85,-9.89 -6.72,-12.62 -2.2,8.33 -13.24,28.33 -15.79,28.18 -2.26,-0.14 -8.29,-11.79 -8.29,-11.79 l -15.71,27.6 z"
           id="path5"
           style="fill:#6dceef" />
        <path
           class="cls-15"
           d="m 482.17,662.96 -7.75,-48.89 -53.55,25.87 c -17.38,30.37 -37.59,63.65 -47.49,102.54 l -3.68,10.48 0.11,-1.15 c -12.16,15.34 -24.43,26.15 -39.53,36.77 -2.26,1.59 -4.63,3.19 -5.66,5.94 -0.5,1.33 -0.52,2.85 0.13,4.11 1.45,2.82 4.94,2.75 7.78,2.23 4.82,-0.88 15.63,-6.06 24.13,-10.55 -3.46,9.26 -6.06,13.92 -10.3,27.28 -0.58,1.83 -1.16,3.83 -0.49,5.63 0.86,2.31 3.59,3.42 5.98,3.13 2.4,-0.28 4.53,-1.64 6.54,-3.01 9.91,-6.76 16.83,-16.6 24.85,-25.61 l 0.54,-1.65 c 3.64,3.93 8.25,8.16 12.44,11.79 5.54,4.81 14.42,0.73 14,-6.59 -0.02,-0.38 -0.07,-0.71 -0.15,-0.95 -4.59,-14.09 -9.19,-28.18 -13.78,-42.27 l 2.03,-6.18 c 21.6,-35.1 50.32,-65.6 83.82,-88.92 z"
           id="path6"
           style="fill:url(#radialGradient50);stroke:#010101;stroke-width:3.36px;stroke-miterlimit:10" />
        <path
           class="cls-14"
           d="m 747.76,719.21 c -11.19,-11.74 -23.97,-21.96 -37.88,-30.31 -0.32,-0.19 -0.7,-0.36 -1.06,-0.4 -8.39,-44.83 -52.24,-87.07 -100.77,-101.56 l -65.36,18.42 32.4,34.53 c 22.58,-4.28 46.55,-0.43 66.77,10.72 20.14,11.11 33.72,25.45 41.6,52.23 l -1.02,0.54 c -1.55,11.29 -3.09,22.58 -4.64,33.87 -0.27,1.94 -0.48,4.13 1.76,5.31 1.86,0.98 4.18,0.46 5.67,-1.03 4.61,-4.59 9.21,-9.19 13.82,-13.78 5.75,8.15 13.32,15 21.97,19.96 4.18,2.4 9.23,-1.3 8.21,-6.01 l -0.02,-0.1 c -1.81,-8.27 -4.66,-16.32 -8.45,-23.89 7.23,2.31 15.39,6.29 23.26,8.05 3.79,0.85 6.47,-3.68 3.79,-6.5 l -0.06,-0.06 z"
           id="path7"
           style="fill:url(#radialGradient51);stroke:#010101;stroke-width:3.36px;stroke-miterlimit:10" />
        <path
           class="cls-22"
           d="m 224.51,227.16 c 3.04,6.21 10,8.02 11.12,14.92 1.12,6.9 0,14.57 -4.51,19.73 -4.59,5.25 -11.79,6.99 -18.54,7.02 -11.72,0.04 -62.89,-17.46 -62.89,-17.46 l 16.07,-8.23 -35.06,-17.21 22.64,-0.75 -32.76,-36.19 15.59,7.59 -20.54,-42.37 14.58,9.89 -15.05,-52.13 17,12.21 -2.91,-42.5 12.4,14.07 c 0,0 5.06,-34.81 8.76,-53.87 1.33,11.6 6.57,47.13 6.57,47.13 l 9.26,-16.97 -4.95,53.97 10.69,-22.43 -1.14,71.65 8.07,-21.19 6.17,41.12 c 0,0 6.77,-8.64 6.83,-11.15 1.41,7.82 9.94,26.96 12.22,26.99 2.02,0.02 8.18,-10.29 8.18,-10.29 l 12.19,26.45 z"
           id="path8"
           style="fill:#6dceef" />
        <path
           class="cls-22"
           d="m 315.48,176.56 c 2.1,5.5 -36.12,13.75 -42.36,12.72 -10.84,-1.79 -34.78,-14.54 -34.78,-14.54 l 15.79,-4.16 -30.46,-19.38 29.73,2.92 -22.64,-38.16 18.99,9.73 -18.99,-43.39 20.45,19.45 -8.03,-52.37 14.61,15.71 4.38,-38.9 12.02,23.31 c 0,0 14.53,-34.65 20.12,-49.49 -0.09,9.6 -5.11,42.64 -5.11,42.64 l 13.35,-13.75 -13.62,48.15 12.43,-16.49 -10.69,56.91 12.11,-20.22 -4.8,44.91 c 0,0 12.35,-11.37 12.69,-13.4 0.42,6.55 -6.76,24.24 -4.65,24.62 1.87,0.33 13.15,-6.73 13.15,-6.73 l -3.65,29.93 z"
           id="path9"
           style="fill:#6dceef" />
        <path
           class="cls-22"
           d="m 577.69,215.47 c -2.54,5.12 27.85,1.34 33.61,1.26 10.01,-0.15 33.15,-9.18 33.15,-9.18 l -13.81,-6.47 29.81,-14.61 -27.24,-1.55 24.91,-34.34 -18.31,6.78 22.21,-40.06 -20.76,16.17 13.34,-50.57 -15.04,13.35 0.54,-39.12 -11.29,14.7 c 0,0 -8.35,-36.86 -11.69,-52.37 -1.03,9.5 -4.38,44.89 -4.38,44.89 l -9.49,-14.21 4.38,48.63 -10.96,-19.45 7.08,63.79 -8.61,-21.8 -0.86,45.12 c 0,0 -9.86,-13.09 -9.93,-15.14 -1.14,6.41 2.58,31.22 0.63,31.28 -1.73,0.05 -21.91,0 -21.91,0 l 14.61,32.92 z"
           id="path10"
           style="fill:#6dceef" />
        <path
           class="cls-22"
           d="m 249.46,381.25 c -24.4,-14.37 -49.15,-41.38 -60.78,-57.37 -10,-13.75 -17.3,-30.72 -13.48,-47.44 -8.84,-4.17 -18.04,-7.54 -27.46,-10.02 l 15.46,17.51 c -12.9,-7.39 -26.83,-12.88 -41.23,-16.26 3.95,5.57 8.96,10.36 14.67,14 -9.59,-4.51 -19.94,-7.33 -30.45,-8.28 3.76,3.68 7.51,7.37 11.27,11.05 -19.48,-8.11 -40.87,-11.33 -61.81,-9.32 11.05,4.09 22.1,8.17 33.15,12.26 -17.16,0.22 -34.27,3.92 -50.06,10.81 9.56,0.98 19.12,1.96 28.68,2.94 -18.65,3.43 -41.18,8.89 -60.7,20.76 9.72,-4.11 35.99,-4.37 35.99,-4.37 -20.13,13.12 -35.32,33.28 -42.69,43.11 7.42,-4.67 28.97,-18.86 36.38,-23.53 -7,10.59 -11.99,22.57 -14.62,35.08 9.13,-11.13 23.76,-26.63 32.89,-37.77 l -7.07,27.31 c 7.95,-14.75 18.77,-27.87 31.64,-38.37 -3.86,10.25 -7.71,20.49 -11.57,30.74 11.93,-13.8 26.91,-24.81 43.5,-31.97 -5.06,8.93 -10.11,17.85 -15.17,26.78 14.59,-9.69 30.82,-16.79 47.75,-20.88 l -17.76,20.7 c 17.39,-7.39 36.15,-11.4 54.97,-11.73 -6.24,7.25 -12.48,14.5 -18.72,21.74 11.59,-3.86 23.19,-7.72 34.78,-11.58 -3.53,6.63 -7.06,13.27 -10.58,19.9 7.35,-2.13 14.71,-4.25 22.06,-6.38 -1.64,4.95 -3.28,9.91 -4.92,14.87 3.73,-2.3 7.61,-5.07 11.96,-5.02 11.36,0.13 11.36,10.13 11.36,10.13 0,0 4.27,-6.25 22.57,0.62 z"
           id="path11"
           style="fill:#6dceef" />
        <path
           class="cls-22"
           d="m 612.6,392.12 c 39.49,-18.88 53.8,-37.58 64.95,-54.84 9.59,-14.85 18.18,-34.16 12.29,-50.34 9.28,-5.18 21.88,-10.01 31.98,-13.58 l -15.2,19.23 c 13.42,-8.86 32.83,-20.99 48.31,-26.04 -3.77,6.01 -13.47,16.39 -19.37,20.68 10.07,-5.61 27,-14.48 38.45,-16.65 -3.75,4.11 -10.84,10.27 -14.59,14.37 20.57,-10.35 41.23,-13.27 64.42,-13.72 -11.72,5.36 -23.44,10.72 -35.16,16.08 18.87,-1.79 45.87,-2.19 63.91,2.82 -10.4,2.1 -22.72,5.38 -33.11,7.47 20.83,1.22 40.19,4.9 62.83,14.42 -11.09,-2.95 -39.96,-0.13 -39.96,-0.13 23.43,10.69 42.15,28.96 51.24,37.87 -8.62,-3.77 -33.72,-15.37 -42.33,-19.14 8.76,9.72 15.45,21.05 19.6,33.18 -11.16,-10 -28.78,-23.71 -39.94,-33.71 l 10.52,26.33 c -10.23,-13.74 -21.43,-20.07 -36.62,-29.01 5.27,9.74 8.54,14.03 13.81,23.77 -14.5,-12.33 -25.6,-18.59 -44.53,-23.77 6.46,8.28 6.44,13.63 12.9,21.92 -17,-7.93 -35.54,-13.08 -54.54,-15.17 l 21.59,18.51 c -19.84,-5.31 -36.12,-4.57 -53.67,-8.17 7.59,6.48 7.29,15.89 14.88,22.37 -13.12,-2.48 -26.24,-4.96 -39.36,-7.44 4.54,6.18 9.09,12.37 13.63,18.55 -8.29,-1.25 -16.58,-2.5 -24.87,-3.76 2.3,4.74 4.6,9.47 6.9,14.21 -4.33,-1.85 -12.45,-3.35 -17.09,-4.59 -16.34,-4.38 -11.79,12.07 -11.79,12.07 0,0 -10.67,-12.75 -30.06,-3.77 z"
           id="path12"
           style="fill:#6dceef" />
        <g
           id="g14">
          <path
             class="cls-26"
             d="M 292.9,167.6 C 274.55,137.65 275.25,83.98 282.97,53.47 256.49,72.68 254.93,146.12 266.42,177.77"
             id="path13"
             style="fill:url(#radialGradient52)" />
          <path
             class="cls-4"
             d="m 292.9,167.6 c -1.21,-4.02 -1.94,-6.64 -3.8,-11.05 -0.23,-0.6 -0.64,-1.49 -1.04,-2.63 -0.21,-0.57 -0.44,-1.19 -0.68,-1.85 l -0.11,-0.3 c -0.07,-0.17 -0.13,-0.35 -0.19,-0.53 -0.12,-0.35 -0.24,-0.71 -0.35,-1.07 -0.24,-0.72 -0.48,-1.45 -0.72,-2.2 -0.43,-1.51 -0.93,-3.03 -1.32,-4.63 -3.45,-12.72 -5.19,-28.36 -5.22,-43.3 -0.08,-14.95 1.49,-29.21 3.57,-39.5 0.12,-0.65 0.26,-1.27 0.39,-1.88 0.22,-1.06 0.52,-2.4 0.81,-3.57 0.22,-1.08 0.43,-2.12 0.64,-3.14 0.1,-0.5 0.2,-1 0.3,-1.49 0.05,-0.24 0.1,-0.49 0.15,-0.73 l 0.04,-0.18 c 0.02,-0.05 -0.01,-0.02 -0.04,0 l -0.07,0.06 -0.3,0.24 c -1.57,1.27 -3.03,2.46 -4.38,3.55 -0.32,0.26 -0.63,0.51 -0.94,0.76 -0.31,0.26 -0.62,0.6 -0.92,0.89 -0.42,0.42 -0.81,0.81 -1.19,1.19 -1.09,1.15 -1.83,2.14 -2.38,2.78 -0.28,0.32 -0.44,0.59 -0.57,0.76 -0.12,0.18 -0.19,0.27 -0.19,0.27 0,0 -0.26,0.36 -0.74,1.04 -0.24,0.34 -0.55,0.76 -0.88,1.27 -0.31,0.52 -0.67,1.11 -1.08,1.78 -1.6,2.68 -3.67,6.67 -5.51,11.75 -3.8,10.13 -6.64,24.49 -7.66,39.63 -0.5,7.57 -0.58,15.34 -0.27,22.88 0.18,3.77 0.42,7.48 0.79,11.08 0.09,0.9 0.18,1.79 0.28,2.68 0.11,0.88 0.22,1.76 0.33,2.63 0.11,0.87 0.21,1.73 0.35,2.58 0.12,0.79 0.24,1.58 0.36,2.35 0.53,3.21 1.07,5.83 1.37,7.13 1.11,4.81 2.41,7.42 4.71,10.92 -0.39,-4.18 -0.58,-6.91 -1.62,-11.6 -0.28,-1.27 -0.8,-3.83 -1.31,-6.97 -0.12,-0.76 -0.24,-1.53 -0.35,-2.3 -0.14,-0.83 -0.24,-1.68 -0.35,-2.53 -0.11,-0.85 -0.22,-1.71 -0.33,-2.58 -0.09,-0.87 -0.18,-1.75 -0.27,-2.63 -0.37,-3.54 -0.6,-7.19 -0.78,-10.9 -0.3,-7.42 -0.22,-15.07 0.27,-22.53 0.99,-14.9 3.79,-28.98 7.46,-38.75 1.78,-4.9 3.75,-8.7 5.26,-11.23 0.38,-0.63 0.72,-1.19 1.02,-1.68 0.3,-0.48 0.6,-0.86 0.82,-1.18 0.45,-0.64 0.69,-0.97 0.69,-0.97 0,0 0.06,-0.08 0.18,-0.25 0.12,-0.16 0.27,-0.42 0.53,-0.71 0.51,-0.58 1.2,-1.5 2.19,-2.55 0.77,-0.76 0.43,-0.43 0.5,-0.5 v 0 l -0.02,0.08 c -0.14,0.63 -0.28,1.27 -0.4,1.92 -2.12,10.51 -3.72,24.96 -3.64,40.13 0.03,15.16 1.79,31.05 5.33,44.11 0.4,1.64 0.92,3.21 1.36,4.76 0.25,0.77 0.5,1.52 0.75,2.26 0.12,0.37 0.25,0.74 0.37,1.11 0.06,0.18 0.12,0.36 0.19,0.54 l 0.12,0.31 c 0.26,0.69 0.49,1.33 0.71,1.91 0.42,1.18 0.85,2.09 1.09,2.71 1.97,4.55 3.78,6.86 6.73,9.83 z"
             id="path14"
             style="fill:#ffffff" />
        </g>
        <g
           id="g16">
          <path
             class="cls-1"
             d="m 199.13,221.84 c -18.11,-11.99 -31.36,-32.77 -37.98,-53.79 -6.62,-21.02 -8.46,-43.26 -10.26,-65.27 -11.61,12.98 -12.87,32.44 -11.01,49.95 3.76,35.5 17.92,69.77 40.17,97.25"
             id="path15"
             style="fill:url(#radialGradient53)" />
          <path
             class="cls-4"
             d="m 199.13,221.84 c -1.37,-1.62 -2.57,-2.83 -3.78,-4.18 -0.61,-0.66 -1.28,-1.29 -1.99,-1.98 -0.7,-0.71 -1.47,-1.44 -2.37,-2.23 -0.5,-0.41 -1.17,-1.12 -2.04,-1.95 -0.43,-0.42 -0.9,-0.88 -1.41,-1.38 -0.54,-0.58 -1.09,-1.17 -1.65,-1.76 -0.63,-0.66 -1.27,-1.35 -1.87,-2.07 -0.61,-0.72 -1.24,-1.45 -1.87,-2.18 -0.6,-0.76 -1.2,-1.54 -1.82,-2.32 -4.86,-6.29 -9.35,-13.79 -13,-21.95 -1.81,-4.09 -3.42,-8.33 -4.78,-12.66 -1.36,-4.35 -2.5,-8.77 -3.49,-13.18 -1.98,-8.82 -3.24,-17.6 -4.2,-25.74 -0.47,-4.07 -0.87,-7.99 -1.2,-11.69 -0.34,-3.9 -0.66,-7.56 -0.95,-10.93 -0.14,-1.54 -0.28,-3.05 -0.41,-4.53 -0.07,-0.74 -0.13,-1.46 -0.2,-2.18 0,-0.03 0,-0.12 -0.02,-0.1 l -0.09,0.11 -0.17,0.21 -0.35,0.42 c -0.23,0.28 -0.46,0.56 -0.68,0.83 -0.91,1.1 -1.79,2.18 -2.64,3.22 -0.21,0.26 -0.42,0.51 -0.62,0.77 -0.18,0.25 -0.35,0.51 -0.52,0.76 -0.2,0.29 -0.39,0.57 -0.58,0.84 -1.52,2.21 -2.6,4.29 -3.4,6.01 -0.44,0.85 -0.74,1.64 -1.01,2.32 -0.27,0.68 -0.5,1.26 -0.69,1.73 -0.31,0.96 -0.48,1.47 -0.48,1.47 0,0 -0.17,0.51 -0.48,1.47 -0.27,0.97 -0.68,2.39 -1.08,4.23 -0.83,3.68 -1.58,9.06 -1.69,15.59 -0.03,3.26 0.06,6.81 0.36,10.57 0.17,1.88 0.34,3.81 0.6,5.78 0.27,1.97 0.44,4 0.81,6.04 1.23,8.21 3.15,17.01 5.8,25.82 2.64,8.81 6,17.61 9.88,25.89 1.93,4.14 3.99,8.15 6.13,11.97 1.1,1.89 2.1,3.81 3.25,5.6 0.56,0.9 1.11,1.8 1.65,2.68 0.27,0.44 0.54,0.88 0.81,1.32 0.13,0.22 0.28,0.43 0.42,0.65 l 0.3,0.45 c 1.81,2.7 3.26,4.93 4.08,5.98 1.46,1.98 2.66,3.49 4,4.75 1.33,1.27 2.69,2.39 4.34,3.67 -0.86,-1.92 -1.59,-3.5 -2.49,-5.08 -0.9,-1.57 -1.85,-3.22 -3.27,-5.18 -0.79,-1.04 -2.21,-3.24 -3.99,-5.89 l -0.3,-0.44 c -0.14,-0.21 -0.28,-0.42 -0.41,-0.63 -0.27,-0.43 -0.53,-0.86 -0.8,-1.3 -0.54,-0.87 -1.08,-1.75 -1.63,-2.64 -1.13,-1.76 -2.11,-3.64 -3.19,-5.5 -2.1,-3.76 -4.13,-7.7 -6.03,-11.77 -3.81,-8.14 -7.12,-16.79 -9.72,-25.45 -2.6,-8.66 -4.49,-17.31 -5.71,-25.38 -0.36,-2.01 -0.53,-4 -0.8,-5.94 -0.26,-1.94 -0.43,-3.82 -0.59,-5.65 -0.29,-3.67 -0.38,-7.11 -0.36,-10.27 0.1,-6.32 0.82,-11.46 1.61,-14.95 0.38,-1.75 0.77,-3.09 1.02,-4.01 0.29,-0.9 0.45,-1.38 0.45,-1.38 0,0 0.16,-0.48 0.45,-1.38 0.17,-0.44 0.39,-0.98 0.65,-1.62 0.25,-0.64 0.53,-1.38 0.94,-2.17 0.75,-1.61 1.75,-3.53 3.15,-5.57 0.19,-0.28 0.39,-0.56 0.59,-0.85 v 0 c 0,0 0,0.08 0,0.11 0.26,3.03 0.55,6.32 0.85,9.83 0.33,3.72 0.74,7.66 1.21,11.77 0.96,8.21 2.23,17.1 4.25,26.07 1.01,4.48 2.16,9 3.55,13.44 1.4,4.45 3.05,8.81 4.92,13.01 3.75,8.39 8.37,16.1 13.38,22.59 0.63,0.81 1.26,1.61 1.88,2.4 0.65,0.76 1.3,1.51 1.93,2.26 0.62,0.75 1.28,1.46 1.93,2.15 0.58,0.62 1.15,1.23 1.71,1.83 0.53,0.51 1.02,0.99 1.47,1.43 0.91,0.86 1.61,1.59 2.13,2.01 0.94,0.81 1.8,1.52 2.61,2.14 0.84,0.6 1.65,1.09 2.45,1.56 1.58,0.96 3.28,1.57 5.21,2.34 z"
             id="path16"
             style="fill:#ffffff" />
        </g>
        <g
           id="g18">
          <path
             class="cls-24"
             d="m 177.16,296.13 c -47.09,-14.5 -101.5,-0.15 -135.91,35.83 13.85,-1.29 26.11,-9.27 39.02,-14.57 41.68,-17.13 86.88,-0.63 117.76,20.84"
             id="path17"
             style="fill:url(#radialGradient54)" />
          <path
             class="cls-4"
             d="m 177.16,296.13 c -1.82,-1.01 -3.38,-1.83 -5.07,-2.56 -1.7,-0.72 -3.52,-1.43 -5.96,-1.84 -0.66,-0.13 -1.64,-0.32 -2.86,-0.55 -0.61,-0.12 -1.28,-0.24 -2,-0.38 -0.38,-0.07 -0.76,-0.14 -1.15,-0.22 -0.49,-0.11 -1,-0.17 -1.51,-0.23 -1.02,-0.12 -2.05,-0.24 -3.1,-0.36 -1.05,-0.12 -2.11,-0.25 -3.18,-0.37 -1.08,-0.12 -2.16,-0.28 -3.27,-0.3 -2.21,-0.1 -4.48,-0.2 -6.78,-0.31 -1.15,-0.08 -2.32,-0.04 -3.49,-0.01 -1.17,0.03 -2.36,0.06 -3.55,0.08 -1.19,0.03 -2.39,0.06 -3.6,0.09 -1.2,0.11 -2.41,0.22 -3.63,0.33 -1.22,0.11 -2.44,0.22 -3.67,0.34 l -1.84,0.17 c -0.61,0.07 -1.22,0.19 -1.84,0.28 -2.45,0.39 -4.92,0.79 -7.41,1.18 -2.45,0.56 -4.91,1.12 -7.37,1.68 l -1.85,0.42 -1.81,0.54 -3.62,1.08 c -1.21,0.36 -2.41,0.73 -3.61,1.09 -1.18,0.44 -2.35,0.88 -3.52,1.31 -1.17,0.44 -2.34,0.87 -3.5,1.31 -0.58,0.22 -1.17,0.43 -1.74,0.66 l -1.69,0.76 c -2.25,1.01 -4.47,2.02 -6.67,3.01 -4.24,2.29 -8.46,4.37 -12.23,6.89 -3.9,2.29 -7.33,4.94 -10.65,7.33 -0.84,0.58 -1.6,1.24 -2.36,1.88 -0.76,0.64 -1.5,1.26 -2.23,1.88 -0.73,0.62 -1.45,1.22 -2.15,1.81 -0.7,0.6 -1.41,1.15 -2.03,1.79 -1.63,1.58 -3.18,3.09 -4.66,4.53 -0.56,0.55 -1.11,1.09 -1.66,1.62 -0.5,0.51 -0.98,1.01 -1.46,1.5 -0.48,0.49 -0.95,0.98 -1.42,1.46 -0.03,0.03 -0.07,0.06 -0.08,0.09 l 0.13,-0.02 0.26,-0.03 0.51,-0.06 c 0.34,-0.04 0.68,-0.08 1.01,-0.12 2.71,-0.3 5.1,-0.69 7.33,-1.04 l 0.42,-0.06 c 0.15,-0.02 0.17,-0.04 0.26,-0.05 l 0.44,-0.1 c 0.29,-0.07 0.57,-0.13 0.85,-0.2 0.55,-0.13 1.08,-0.24 1.57,-0.39 1.98,-0.53 3.49,-1.05 4.52,-1.39 1.02,-0.37 1.55,-0.57 1.55,-0.57 0,0 2.17,-0.76 5.86,-2.38 3.7,-1.6 8.86,-4.18 15.13,-7.05 6.27,-2.85 13.87,-5.6 22.53,-7.16 8.63,-1.58 18.21,-2.05 27.92,-1.1 9.71,0.92 19.5,3.15 28.71,6.26 4.6,1.55 9.07,3.31 13.33,5.21 2.13,0.94 4.21,1.93 6.23,2.93 1.01,0.51 2,1.02 2.99,1.52 0.9,0.48 1.8,0.96 2.68,1.44 2.8,1.53 5.06,2.85 6.18,3.52 4.14,2.48 6.71,3.52 10.65,4.99 -2.78,-3.13 -4.82,-5.14 -9.02,-7.71 -1.14,-0.69 -3.43,-2.05 -6.28,-3.61 -0.9,-0.48 -1.81,-0.97 -2.73,-1.47 -1.01,-0.51 -2.02,-1.03 -3.05,-1.55 -2.07,-1.01 -4.18,-2.02 -6.36,-2.99 -4.35,-1.93 -8.9,-3.73 -13.61,-5.32 -9.41,-3.18 -19.44,-5.47 -29.43,-6.41 -9.98,-0.97 -19.87,-0.49 -28.79,1.15 -8.94,1.6 -16.87,4.48 -23.26,7.39 -6.39,2.92 -11.48,5.48 -15.1,7.04 -3.61,1.59 -5.69,2.31 -5.69,2.31 0,0 -0.52,0.19 -1.49,0.54 -0.98,0.32 -2.43,0.82 -4.3,1.32 -0.46,0.14 -0.96,0.24 -1.48,0.37 -0.45,0.1 -0.91,0.21 -1.4,0.33 -0.08,0.01 -0.17,0.03 -0.14,0.02 v 0 c 0.23,-0.21 0.45,-0.43 0.69,-0.66 0.59,-0.57 1.19,-1.16 1.81,-1.76 0.6,-0.62 1.3,-1.16 1.98,-1.74 0.69,-0.58 1.39,-1.17 2.1,-1.77 0.71,-0.6 1.44,-1.21 2.18,-1.83 0.74,-0.62 1.48,-1.27 2.3,-1.83 3.24,-2.33 6.59,-4.92 10.4,-7.16 3.67,-2.46 7.8,-4.49 11.94,-6.73 2.15,-0.97 4.32,-1.95 6.52,-2.94 l 1.65,-0.74 c 0.56,-0.23 1.13,-0.43 1.7,-0.64 1.14,-0.42 2.28,-0.85 3.42,-1.28 1.14,-0.43 2.29,-0.86 3.44,-1.28 1.17,-0.35 2.35,-0.71 3.53,-1.06 l 3.54,-1.06 1.77,-0.53 1.8,-0.41 c 2.4,-0.55 4.81,-1.09 7.2,-1.64 2.42,-0.39 4.84,-0.77 7.24,-1.15 0.6,-0.09 1.2,-0.2 1.8,-0.28 l 1.8,-0.16 c 1.2,-0.11 2.39,-0.22 3.58,-0.33 1.19,-0.11 2.37,-0.22 3.54,-0.32 1.18,-0.03 2.35,-0.05 3.51,-0.08 1.16,-0.03 2.32,-0.05 3.46,-0.08 1.15,-0.03 2.28,-0.07 3.41,0.01 2.25,0.1 4.46,0.2 6.62,0.3 1.08,0.02 2.14,0.18 3.19,0.29 1.05,0.12 2.08,0.24 3.11,0.36 1.03,0.12 2.03,0.24 3.02,0.35 0.5,0.05 0.99,0.11 1.47,0.22 0.38,0.07 0.75,0.14 1.12,0.21 0.7,0.13 1.35,0.26 1.95,0.37 1.19,0.22 2.15,0.4 2.79,0.52 2.38,0.37 4.22,0.79 6.02,0.98 1.8,0.21 3.54,0.27 5.66,0.31 z"
             id="path18"
             style="fill:#ffffff" />
        </g>
        <g
           id="g20">
          <path
             class="cls-38"
             d="m 593.93,179.26 c 15.14,-11.31 22.56,-30.33 25.22,-49.32 3.58,-25.55 -0.77,-52.54 -1.22,-57.2 5.09,1.55 8.91,8.66 11.68,16.79 1.39,4.07 2.5,8.38 3.37,12.35 0.87,3.97 1.49,7.62 1.9,10.35 4.9,33.01 -0.09,54.93 -12.15,85.95"
             id="path19"
             style="fill:url(#radialGradient55)" />
          <path
             class="cls-4"
             d="m 593.93,179.26 c 1.89,-0.87 3.52,-1.64 5.03,-2.73 0.38,-0.27 0.77,-0.54 1.16,-0.83 0.38,-0.31 0.74,-0.64 1.13,-0.99 0.76,-0.71 1.59,-1.47 2.37,-2.45 0.4,-0.49 1.02,-1.19 1.72,-2.09 0.34,-0.46 0.71,-0.97 1.11,-1.5 0.1,-0.13 0.2,-0.27 0.3,-0.41 0.41,-0.53 0.82,-1.16 1.21,-1.77 0.4,-0.61 0.8,-1.24 1.21,-1.86 0.38,-0.65 0.75,-1.31 1.14,-1.97 3.07,-5.32 5.54,-11.55 7.44,-18.13 0.9,-3.31 1.7,-6.69 2.3,-10.12 0.6,-3.43 1.05,-6.89 1.38,-10.33 1.28,-13.77 0.61,-27.09 -0.31,-37.21 -0.23,-2.53 -0.48,-4.87 -0.72,-6.97 -0.2,-1.63 -0.38,-3.08 -0.53,-4.31 v 0 c 0,0 -0.03,-0.02 0.03,0.02 0.23,0.19 0.4,0.33 0.51,0.42 1.31,1.21 2.16,2.4 2.77,3.31 0.61,0.93 0.99,1.6 1.25,2.08 0.52,0.94 0.56,1.05 0.56,1.05 0,0 0.78,1.44 1.87,4.17 1.1,2.73 2.46,6.78 3.71,11.84 0.31,1.27 0.63,2.59 0.92,3.98 0.25,1.39 0.52,2.84 0.79,4.32 0.27,1.49 0.55,3.02 0.84,4.6 0.32,1.57 0.46,3.21 0.7,4.87 0.85,6.65 1.41,13.89 1.31,21.28 -0.09,7.4 -0.86,14.94 -2.24,22.17 -0.31,1.81 -0.76,3.59 -1.12,5.36 -0.4,1.76 -0.87,3.49 -1.29,5.21 -0.46,1.71 -0.96,3.38 -1.42,5.03 -0.23,0.83 -0.5,1.63 -0.75,2.43 -0.24,0.75 -0.47,1.49 -0.7,2.22 -0.98,3.04 -1.85,5.52 -2.27,6.76 -1.61,4.57 -2.08,7.33 -2.59,11.5 2.4,-3.43 3.9,-5.84 5.58,-10.44 0.43,-1.25 1.32,-3.76 2.32,-6.84 0.23,-0.74 0.47,-1.49 0.71,-2.25 0.25,-0.82 0.53,-1.63 0.76,-2.47 0.47,-1.68 0.98,-3.38 1.44,-5.11 0.43,-1.75 0.91,-3.51 1.32,-5.31 0.38,-1.81 0.83,-3.62 1.15,-5.48 1.41,-7.4 2.2,-15.14 2.29,-22.72 0.1,-7.58 -0.47,-14.97 -1.34,-21.73 -0.25,-1.69 -0.39,-3.35 -0.71,-4.95 -0.29,-1.61 -0.58,-3.17 -0.86,-4.69 -0.28,-1.52 -0.55,-2.99 -0.81,-4.41 -0.29,-1.41 -0.62,-2.77 -0.94,-4.07 -1.28,-5.18 -2.69,-9.38 -3.84,-12.25 -1.15,-2.88 -1.99,-4.44 -1.99,-4.44 0,0 -0.04,-0.11 -0.6,-1.14 -0.28,-0.51 -0.7,-1.26 -1.38,-2.3 -0.69,-1.03 -1.64,-2.4 -3.3,-3.93 -0.15,-0.12 -0.37,-0.31 -0.67,-0.55 -0.47,-0.41 -1.23,-0.77 -2.03,-1.28 -0.81,-0.36 -1.7,-0.69 -2.83,-1.12 -0.27,-0.1 -0.55,-0.21 -0.83,-0.31 -0.03,0 -0.07,-0.04 -0.09,-0.03 v 0.13 l 0.04,0.26 c 0.02,0.17 0.04,0.35 0.06,0.53 0.08,0.72 0.17,1.47 0.26,2.26 0.23,1.92 0.51,4.18 0.81,6.72 0.23,2.08 0.49,4.39 0.71,6.89 0.9,10 1.56,23.15 0.3,36.62 -0.32,3.36 -0.75,6.74 -1.34,10.07 -0.58,3.34 -1.37,6.61 -2.23,9.81 -1.84,6.36 -4.22,12.35 -7.15,17.42 -0.37,0.63 -0.73,1.26 -1.08,1.88 -0.39,0.6 -0.77,1.19 -1.15,1.77 -0.37,0.58 -0.76,1.18 -1.15,1.68 -0.1,0.13 -0.19,0.26 -0.29,0.39 -0.37,0.51 -0.72,0.99 -1.04,1.43 -0.66,0.86 -1.24,1.52 -1.62,1.99 -0.73,0.94 -1.46,1.7 -2.07,2.46 -0.31,0.39 -0.6,0.76 -0.89,1.12 -0.3,0.35 -0.59,0.69 -0.87,1.04 -1.11,1.43 -2.17,2.8 -3.44,4.43 z"
             id="path20"
             style="fill:#ffffff" />
        </g>
        <g
           id="g22">
          <path
             class="cls-2"
             d="m 659.76,233.57 c 60.89,-1.65 79.24,-97.45 80.09,-111.81 2.2,-37.12 17.93,26.3 13.05,47.4 -1.12,5.61 -2.57,11.15 -4.26,16.59 -1.69,5.43 -3.62,10.75 -5.7,15.89 -1.89,4.63 -3.93,9.06 -6.1,13.22 -2.58,4.47 -5.45,8.83 -8.58,13.05 -12.48,16.88 -28.87,31.57 -45.93,41.4"
             id="path21"
             style="fill:url(#radialGradient56)" />
          <path
             class="cls-4"
             d="m 659.76,233.57 c 2.04,0.35 3.81,0.61 5.68,0.73 0.93,-0.02 1.88,-0.09 2.91,-0.2 0.52,-0.06 1.05,-0.12 1.61,-0.2 0.56,-0.08 1.15,-0.16 1.75,-0.35 0.65,-0.18 1.64,-0.45 2.85,-0.79 0.6,-0.18 1.28,-0.33 1.98,-0.58 l 2.86,-1.11 c 0.54,-0.21 1.09,-0.43 1.65,-0.64 0.55,-0.22 1.07,-0.52 1.61,-0.78 1.08,-0.54 2.17,-1.08 3.27,-1.63 1.06,-0.62 2.12,-1.29 3.2,-1.94 4.24,-2.71 8.41,-5.97 12.18,-9.83 3.81,-3.81 7.4,-8.04 10.59,-12.65 6.48,-9.14 11.69,-19.43 15.92,-29.78 4.19,-10.38 7.44,-20.83 9.8,-30.65 1.19,-4.91 2.17,-9.65 2.91,-14.18 0.37,-2.27 0.69,-4.46 0.85,-6.67 0.15,-2.13 0.29,-4.1 0.56,-5.97 0.14,-0.92 0.29,-1.83 0.51,-2.64 0.1,-0.41 0.22,-0.8 0.36,-1.13 l 0.1,-0.25 0.04,-0.09 c 0.04,-0.07 0.03,-0.05 0.03,-0.05 v 0 c 0.08,0.12 0.16,0.2 0.25,0.33 0.09,0.14 0.19,0.27 0.28,0.42 0.18,0.3 0.35,0.61 0.52,0.94 1.28,2.63 2.06,5.24 2.69,7.33 0.62,2.11 1.03,3.79 1.3,4.93 0.27,1.15 0.41,1.75 0.41,1.75 0,0 0.58,2.43 1.37,6.79 0.78,4.36 1.79,10.68 2.25,18.39 0.21,3.84 0.32,8.06 -0.17,12.41 -0.13,1.09 -0.29,2.15 -0.54,3.25 -0.23,1.16 -0.47,2.3 -0.73,3.45 -0.52,2.31 -1.11,4.67 -1.76,7.07 -1.31,4.79 -2.88,9.72 -4.7,14.72 -1.82,5 -3.84,10.04 -6.2,15 -0.59,1.24 -1.19,2.48 -1.81,3.71 -0.6,1.24 -1.26,2.34 -1.99,3.55 -1.43,2.37 -2.94,4.69 -4.51,6.97 -3.15,4.56 -6.57,8.93 -10.15,13.05 -3.58,4.12 -7.33,8 -11.15,11.58 -1.91,1.79 -3.84,3.51 -5.77,5.15 -0.98,0.81 -1.93,1.63 -2.9,2.4 -0.9,0.71 -1.79,1.42 -2.67,2.12 -2.53,1.94 -4.66,3.45 -5.72,4.21 -3.96,2.75 -5.97,4.64 -8.96,7.59 4.01,-1.19 6.71,-2.21 10.78,-4.98 1.1,-0.76 3.27,-2.3 5.86,-4.28 0.9,-0.71 1.81,-1.43 2.73,-2.16 0.99,-0.79 1.96,-1.63 2.96,-2.45 1.97,-1.68 3.93,-3.43 5.88,-5.26 3.9,-3.65 7.72,-7.61 11.38,-11.81 3.66,-4.2 7.14,-8.67 10.37,-13.33 1.61,-2.33 3.15,-4.71 4.62,-7.14 0.72,-1.18 1.49,-2.49 2.1,-3.76 0.64,-1.26 1.25,-2.52 1.85,-3.79 2.41,-5.06 4.47,-10.21 6.31,-15.28 1.84,-5.07 3.44,-10.09 4.77,-14.97 0.66,-2.44 1.26,-4.85 1.79,-7.21 0.26,-1.18 0.51,-2.36 0.74,-3.48 0.27,-1.17 0.45,-2.39 0.59,-3.55 0.52,-4.67 0.39,-9 0.18,-12.96 -0.48,-7.91 -1.51,-14.32 -2.3,-18.77 -0.81,-4.45 -1.4,-6.93 -1.4,-6.93 0,0 -0.15,-0.62 -0.42,-1.79 -0.28,-1.17 -0.7,-2.89 -1.34,-5.08 -0.66,-2.19 -1.43,-4.84 -2.9,-7.88 -0.19,-0.38 -0.4,-0.77 -0.64,-1.16 -0.12,-0.2 -0.26,-0.4 -0.4,-0.6 -0.14,-0.21 -0.34,-0.44 -0.51,-0.65 -0.58,-0.58 -1.26,-1.12 -2.05,-1.24 -0.8,-0.16 -1.61,0.18 -2.22,0.73 -0.27,0.33 -0.59,0.65 -0.75,0.99 -0.09,0.17 -0.2,0.35 -0.27,0.51 l -0.16,0.38 c -0.21,0.51 -0.36,1.01 -0.48,1.5 -0.26,0.99 -0.43,1.98 -0.58,2.99 -0.29,2 -0.44,4.11 -0.59,6.2 -0.15,2.02 -0.46,4.18 -0.82,6.39 -0.72,4.42 -1.69,9.1 -2.86,13.94 -2.33,9.68 -5.54,19.99 -9.66,30.2 -4.17,10.17 -9.28,20.27 -15.57,29.14 -3.1,4.47 -6.58,8.56 -10.24,12.23 -3.63,3.71 -7.61,6.82 -11.64,9.4 -1.02,0.62 -2.03,1.24 -3.03,1.85 -1.04,0.52 -2.08,1.03 -3.09,1.54 -0.51,0.24 -1,0.53 -1.52,0.74 -0.52,0.2 -1.04,0.4 -1.56,0.6 -0.91,0.35 -1.81,0.7 -2.7,1.05 -0.66,0.24 -1.3,0.38 -1.87,0.55 -1.15,0.33 -2.07,0.59 -2.69,0.76 -0.56,0.19 -1.11,0.28 -1.64,0.39 -0.52,0.11 -1.02,0.23 -1.49,0.35 -0.95,0.24 -1.83,0.5 -2.68,0.78 -1.73,0.4 -3.38,0.91 -5.39,1.58 z"
             id="path22"
             style="fill:#ffffff" />
        </g>
        <g
           id="g24">
          <path
             class="cls-37"
             d="m 663.75,357.1 c 57.18,-45.98 118.95,-52.76 180.73,-27.9 4.12,-12.98 -40.22,-33.68 -69,-36.23 -28.78,-2.56 -57.56,3.43 -85.86,9.38"
             id="path23"
             style="fill:url(#radialGradient57)" />
          <path
             class="cls-4"
             d="m 663.75,357.1 c 3.84,-1.71 6.3,-2.99 10.24,-5.81 0.53,-0.38 1.31,-0.98 2.32,-1.66 0.5,-0.35 1.05,-0.72 1.64,-1.13 0.83,-0.57 1.68,-1.16 2.54,-1.75 0.97,-0.66 1.99,-1.29 3,-1.95 1.02,-0.65 2.04,-1.33 3.1,-1.98 1.06,-0.64 2.14,-1.29 3.23,-1.94 8.71,-5.24 18.69,-10.13 29.35,-14.16 5.35,-1.95 10.86,-3.71 16.45,-5.17 5.61,-1.41 11.29,-2.55 16.96,-3.39 5.67,-0.78 11.31,-1.27 16.83,-1.5 5.52,-0.14 10.91,-0.1 16.07,0.25 10.33,0.65 19.74,2.27 27.61,4.05 7.88,1.8 14.24,3.78 18.64,5.23 2.2,0.74 3.89,1.37 5.06,1.77 1.16,0.4 1.77,0.64 1.77,0.64 0,0 0.61,0.24 1.76,0.68 0.7,0.27 1.57,0.61 2.59,1 0.21,0.08 0.43,0.17 0.65,0.25 l 0.33,0.13 0.3,0.07 c 0.41,0.1 0.83,0.2 1.26,0.31 l 0.16,0.04 c 0,0 0.03,-0.11 0.05,-0.16 l 0.09,-0.36 c 0.06,-0.24 0.12,-0.48 0.19,-0.73 0.11,-0.48 0.28,-0.94 0.3,-1.52 0.02,-0.28 0.07,-0.55 0.07,-0.85 0,-0.14 0,-0.3 -0.01,-0.46 l -0.03,-0.41 c -0.05,-0.37 -0.1,-0.76 -0.2,-1.14 -0.17,-0.77 -0.48,-1.49 -0.82,-2.22 -0.72,-1.44 -1.7,-2.8 -2.86,-4.1 -2.33,-2.6 -5.34,-5 -8.79,-7.31 -6.93,-4.61 -15.7,-8.89 -25.58,-12.57 -4.95,-1.83 -10.18,-3.51 -15.65,-4.9 -5.47,-1.38 -11.17,-2.51 -17.05,-3.01 -11.65,-0.98 -23.64,-0.65 -35.14,0.59 -5.76,0.59 -11.4,1.37 -16.86,2.26 -2.74,0.42 -5.42,0.92 -8.05,1.38 -1.32,0.24 -2.62,0.49 -3.91,0.73 -1.19,0.23 -2.37,0.46 -3.53,0.68 -3.16,0.64 -5.76,1.16 -7.05,1.42 -4.77,1 -7.37,2.11 -11.14,3.94 4.19,0.15 7.01,0.12 11.78,-0.83 1.29,-0.26 3.88,-0.77 7.03,-1.39 1.16,-0.22 2.33,-0.45 3.52,-0.68 1.28,-0.24 2.58,-0.48 3.89,-0.72 2.62,-0.46 5.28,-0.95 7.99,-1.37 5.42,-0.89 11,-1.65 16.68,-2.24 11.36,-1.22 23.13,-1.54 34.53,-0.58 5.65,0.48 11.2,1.58 16.54,2.93 5.34,1.36 10.48,3 15.33,4.79 9.69,3.6 18.28,7.81 24.93,12.23 3.31,2.21 6.14,4.49 8.19,6.78 1.03,1.14 1.83,2.29 2.38,3.38 0.25,0.55 0.48,1.08 0.58,1.57 0.07,0.25 0.1,0.49 0.13,0.72 0,0.09 0,0.06 0,0.05 v -0.02 0 c 0,0 0,0 0,0 -0.66,-0.26 -1.23,-0.47 -1.68,-0.65 -1.17,-0.45 -1.78,-0.69 -1.78,-0.69 0,0 -0.62,-0.24 -1.8,-0.65 -1.18,-0.41 -2.9,-1.05 -5.13,-1.8 -4.46,-1.47 -10.92,-3.49 -18.94,-5.32 -8.01,-1.81 -17.58,-3.47 -28.11,-4.13 -5.26,-0.36 -10.76,-0.4 -16.39,-0.26 -5.63,0.23 -11.39,0.73 -17.17,1.52 -5.78,0.86 -11.58,2.02 -17.3,3.45 -5.71,1.49 -11.32,3.28 -16.77,5.27 -10.86,4.1 -21.02,9.08 -29.87,14.41 -1.11,0.67 -2.2,1.32 -3.28,1.97 -1.07,0.66 -2.11,1.35 -3.14,2.01 -1.03,0.67 -2.06,1.31 -3.05,1.98 -0.87,0.6 -1.73,1.19 -2.57,1.77 -0.6,0.41 -1.16,0.8 -1.66,1.15 -1.03,0.69 -1.81,1.31 -2.35,1.7 -3.96,2.89 -5.81,5.08 -8.38,8.37 z"
             id="path24"
             style="fill:#ffffff" />
        </g>
        <path
           class="cls-27"
           d="m 302.54,408.43 c -0.38,56.48 18.66,114.67 50.76,160.6 32.1,45.93 101.86,116.64 189.69,89.93 v 0 c 26.43,-8.12 48.41,-27.53 59.26,-53.52 24.63,-58.98 1.57,-148.4 -34.66,-193.76"
           id="path25"
           style="fill:url(#radialGradient58)" />
        <path
           class="cls-28"
           d="m 529.26,425.61 c 54.08,-19.25 147.03,-48.3 159.46,-114.07 6.21,-31.82 -12.43,-59.41 -32.74,-80.28 -7.31,-8.31 -15.3,-16.05 -23.84,-23.24 -16.26,-13.69 -34.48,-25.47 -53.83,-35.29 -76.92,-39.03 -155.22,-52.5 -264.46,-13.04 -65.86,23.79 -137.7,59.66 -138.7,119.2 -1.31,77.45 119.44,127.03 182.56,152.33 0,0 94.42,27.72 171.54,-5.62 z"
           id="path26"
           style="fill:url(#radialGradient59)" />
        <g
           id="g28">
          <path
             class="cls-4"
             d="m 432.03,360.13 c 42.73,-5.1 68.68,-19.68 77.9,-25.75 0.74,-0.48 0.22,-1.62 -0.63,-1.38 -50.4,14.17 -119.45,8.46 -158.23,0.06 -1.44,-0.31 -2.14,1.68 -0.83,2.34 16.1,8.04 49.48,23.55 69.21,24.62"
             id="path27"
             style="fill:#ffffff" />
          <path
             class="cls-39"
             d="m 432.03,360.13 c 1.04,0.11 1.74,0.16 2.95,0 0.16,-0.02 0.41,-0.05 0.71,-0.1 0.15,-0.02 0.32,-0.04 0.5,-0.07 0.95,-0.13 1.92,-0.26 2.9,-0.4 1.13,-0.14 2.27,-0.37 3.42,-0.55 2.31,-0.4 4.69,-0.76 7.1,-1.28 9.66,-1.92 20.1,-4.61 30.49,-8.42 5.21,-1.87 10.38,-4.05 15.45,-6.48 5.08,-2.44 9.98,-5.1 14.72,-8.23 0.42,-0.33 0.51,-1 0.25,-1.44 -0.23,-0.47 -0.87,-0.72 -1.34,-0.55 l -2,0.5 c -1.33,0.34 -2.66,0.67 -3.99,1 -1.33,0.33 -2.64,0.68 -3.96,0.98 -1.33,0.26 -2.65,0.52 -3.96,0.78 -1.31,0.26 -2.61,0.52 -3.91,0.77 -0.65,0.13 -1.29,0.25 -1.93,0.38 -0.65,0.1 -1.29,0.2 -1.93,0.29 -2.57,0.39 -5.09,0.78 -7.57,1.15 -9.94,1.23 -19.11,2.05 -26.92,2.32 -1.95,0.09 -3.82,0.17 -5.59,0.25 -1.77,0.03 -3.45,0.05 -5.02,0.08 -3.14,0.04 -5.87,0.12 -8.11,0.06 -4.47,-0.05 -7,-0.08 -7,-0.08 0,0 -0.63,-0.01 -1.82,-0.03 -1.19,-0.04 -2.94,-0.11 -5.17,-0.19 -2.24,-0.09 -4.96,-0.15 -8.1,-0.37 -3.14,-0.21 -6.7,-0.35 -10.59,-0.72 -1.95,-0.16 -3.98,-0.33 -6.09,-0.51 -2.11,-0.19 -4.29,-0.45 -6.54,-0.68 -2.25,-0.23 -4.57,-0.48 -6.95,-0.81 -2.37,-0.32 -4.81,-0.6 -7.29,-0.96 -2.48,-0.38 -5,-0.76 -7.57,-1.15 -2.56,-0.45 -5.16,-0.9 -7.79,-1.37 -2.63,-0.5 -5.28,-1.06 -7.95,-1.59 -0.28,-0.07 -0.81,-0.18 -1.23,0 -0.44,0.17 -0.77,0.53 -0.93,0.94 -0.17,0.41 -0.17,0.9 0.03,1.32 0.17,0.43 0.64,0.73 0.94,0.86 1.24,0.61 2.48,1.22 3.73,1.84 9.99,4.87 20.36,9.53 30.68,13.51 5.15,2 10.3,3.79 15.38,5.32 2.53,0.79 5.07,1.43 7.56,2.04 1.26,0.27 2.5,0.54 3.73,0.81 1.14,0.19 2.27,0.37 3.38,0.55 0.8,0.15 1.46,0.19 1.79,0.22 1.22,0.11 1.93,0.04 2.96,-0.12 -1,-0.35 -1.67,-0.55 -2.87,-0.67 -0.33,-0.03 -0.98,-0.08 -1.77,-0.23 -1.1,-0.18 -2.22,-0.36 -3.34,-0.55 -1.22,-0.27 -2.46,-0.53 -3.7,-0.8 -2.48,-0.61 -5,-1.25 -7.52,-2.03 -5.05,-1.52 -10.19,-3.3 -15.32,-5.3 -10.28,-3.97 -20.64,-8.62 -30.61,-13.48 -1.24,-0.61 -2.48,-1.22 -3.72,-1.83 -0.32,-0.15 -0.46,-0.26 -0.57,-0.48 -0.1,-0.2 -0.11,-0.46 0,-0.68 0.09,-0.22 0.27,-0.41 0.47,-0.49 0.23,-0.08 0.41,-0.05 0.79,0.03 2.69,0.54 5.34,1.1 7.98,1.59 2.64,0.46 5.25,0.92 7.81,1.37 2.57,0.39 5.11,0.77 7.59,1.15 2.48,0.37 4.93,0.65 7.3,0.96 2.38,0.33 4.7,0.58 6.96,0.81 2.26,0.23 4.44,0.49 6.56,0.68 2.11,0.18 4.15,0.35 6.1,0.51 3.9,0.37 7.46,0.51 10.61,0.72 3.14,0.22 5.87,0.28 8.11,0.37 2.24,0.08 3.99,0.15 5.18,0.19 1.19,0.02 1.82,0.03 1.82,0.03 0,0 2.53,0.03 7.01,0.08 2.24,0.06 4.97,-0.02 8.12,-0.06 1.57,-0.02 3.25,-0.05 5.03,-0.08 1.77,-0.08 3.64,-0.16 5.6,-0.25 7.83,-0.28 17.02,-1.09 26.99,-2.33 2.48,-0.38 5.02,-0.76 7.59,-1.16 0.64,-0.1 1.29,-0.2 1.94,-0.3 0.64,-0.13 1.29,-0.25 1.94,-0.38 1.3,-0.26 2.6,-0.52 3.92,-0.78 1.32,-0.26 2.64,-0.52 3.97,-0.79 1.32,-0.3 2.64,-0.65 3.97,-0.98 1.33,-0.33 2.66,-0.67 4,-1.01 l 2.01,-0.51 c 0.37,-0.15 0.65,0.41 0.36,0.62 -2.21,1.47 -4.68,2.92 -7.09,4.28 -2.45,1.34 -4.93,2.63 -7.45,3.84 -5.04,2.41 -10.2,4.59 -15.38,6.45 -10.35,3.79 -20.74,6.47 -30.37,8.38 -2.4,0.52 -4.78,0.87 -7.08,1.28 -1.15,0.18 -2.28,0.41 -3.41,0.55 -0.98,0.13 -1.94,0.26 -2.89,0.39 -0.18,0.02 -0.34,0.05 -0.5,0.07 -0.3,0.04 -0.55,0.08 -0.71,0.1 -1.2,0.17 -1.87,0.4 -2.85,0.79 z"
             id="path28"
             style="fill:#010101" />
        </g>
        <path
           class="cls-39"
           d="m 432.03,360.13 c 4.15,0.42 7.01,0.71 11.84,-0.14 0.65,-0.11 1.64,-0.27 2.86,-0.48 0.61,-0.09 1.28,-0.23 1.99,-0.37 1.88,-0.38 3.82,-0.78 5.82,-1.18 2.1,-0.5 4.25,-1 6.46,-1.53 8.8,-2.19 18.23,-5.25 27.64,-9.16 4.69,-1.99 9.37,-4.2 13.93,-6.67 1.15,-0.6 2.27,-1.26 3.4,-1.91 l 0.61,-0.35 0.79,-0.5 1.56,-0.99 1.56,-0.99 0.39,-0.25 0.19,-0.12 0.1,-0.06 c 0,0 0.02,-0.03 0.02,-0.04 l 0.15,-0.33 c 0.17,-0.43 0.45,-0.9 0.54,-1.29 0,-0.21 -0.05,-0.64 -0.22,-1.01 -0.16,-0.37 -0.44,-0.67 -0.56,-0.77 -0.21,-0.18 -0.48,-0.4 -1.06,-0.55 -0.52,-0.24 -2.06,0.28 -3.23,0.55 -1.72,0.43 -3.44,0.87 -5.16,1.3 -1.21,0.3 -2.42,0.63 -3.64,0.85 -2.44,0.48 -4.85,0.96 -7.23,1.44 -1.19,0.26 -2.38,0.43 -3.57,0.61 -1.19,0.18 -2.36,0.36 -3.53,0.54 -2.34,0.35 -4.63,0.74 -6.9,0.96 -2.27,0.25 -4.49,0.5 -6.65,0.75 -2.16,0.27 -4.29,0.36 -6.35,0.54 -2.06,0.16 -4.05,0.31 -5.98,0.45 -1.93,0.09 -3.79,0.17 -5.57,0.25 -1.78,0.08 -3.48,0.15 -5.09,0.22 -1.62,0.02 -3.14,0.05 -4.58,0.07 -2.87,0.03 -5.35,0.12 -7.39,0.08 -4.08,-0.05 -6.38,-0.08 -6.38,-0.08 l -1.62,-0.02 c -1.07,0 -2.66,-0.07 -4.72,-0.14 -2.06,-0.08 -4.6,-0.18 -7.58,-0.29 -2.98,-0.18 -6.39,-0.4 -10.2,-0.63 -7.61,-0.63 -16.83,-1.4 -27.26,-2.86 -5.21,-0.73 -10.74,-1.57 -16.51,-2.62 -1.45,-0.24 -2.9,-0.53 -4.37,-0.83 -0.74,-0.15 -1.47,-0.3 -2.22,-0.45 -0.61,-0.12 -1.23,-0.25 -1.85,-0.37 -0.74,-0.14 -1.58,-0.37 -2.1,-0.25 -0.24,0.05 -0.48,0.11 -0.66,0.18 -0.17,0.08 -0.34,0.17 -0.52,0.29 -0.37,0.26 -0.75,0.69 -0.96,1.19 -0.22,0.5 -0.3,1.08 -0.22,1.58 0.03,0.25 0.11,0.48 0.18,0.66 0.08,0.18 0.15,0.34 0.31,0.54 0.1,0.18 0.33,0.38 0.55,0.59 0.28,0.2 0.61,0.38 0.98,0.55 l 1.99,0.99 c 0.72,0.35 1.44,0.7 2.16,1.06 6.66,3.24 14.31,6.77 22.35,10.12 4.02,1.68 8.14,3.3 12.28,4.81 2.08,0.74 4.14,1.49 6.23,2.16 1.04,0.33 2.06,0.7 3.11,1 0.83,0.25 1.65,0.49 2.46,0.74 1.46,0.46 2.88,0.81 4.08,1.12 1.2,0.31 2.19,0.58 2.86,0.71 1.21,0.26 2.3,0.45 3.31,0.6 1.02,0.13 1.98,0.16 2.9,0.18 1.84,0.08 3.64,-0.22 5.69,-0.51 -2,-0.72 -3.62,-1.18 -5.33,-1.78 -0.86,-0.28 -1.74,-0.5 -2.7,-0.77 -0.96,-0.28 -1.99,-0.54 -3.16,-0.8 -0.65,-0.13 -1.61,-0.4 -2.78,-0.7 -1.17,-0.31 -2.55,-0.65 -3.98,-1.1 -0.8,-0.24 -1.61,-0.48 -2.42,-0.72 -1.02,-0.29 -2.03,-0.66 -3.05,-0.99 -2.05,-0.65 -4.09,-1.39 -6.14,-2.13 -4.09,-1.49 -8.17,-3.09 -12.15,-4.76 -7.97,-3.32 -15.57,-6.82 -22.19,-10.04 -0.72,-0.35 -1.44,-0.7 -2.15,-1.05 l -0.13,-0.07 c 0,0 0,0 -0.01,0 h 0.01 c 0,0 0,0.03 0,0.02 h -0.02 l 0.13,0.02 0.28,0.06 c 0.75,0.15 1.5,0.3 2.24,0.45 1.49,0.31 2.96,0.6 4.42,0.84 5.83,1.07 11.39,1.91 16.65,2.64 10.51,1.47 19.79,2.24 27.45,2.87 3.84,0.24 7.28,0.45 10.27,0.63 3,0.12 5.56,0.21 7.64,0.29 2.08,0.08 3.67,0.15 4.75,0.14 1.08,0.01 1.64,0.02 1.64,0.02 0,0 2.32,0.03 6.43,0.08 2.06,0.04 4.56,-0.05 7.45,-0.07 1.44,-0.02 2.99,-0.04 4.61,-0.07 1.63,-0.07 3.34,-0.14 5.14,-0.22 1.8,-0.08 3.67,-0.16 5.62,-0.25 1.94,-0.15 3.96,-0.3 6.04,-0.45 2.08,-0.18 4.22,-0.27 6.41,-0.54 2.19,-0.25 4.44,-0.5 6.73,-0.75 2.3,-0.22 4.62,-0.62 6.99,-0.97 1.18,-0.18 2.38,-0.36 3.58,-0.54 1.2,-0.18 2.41,-0.36 3.62,-0.62 2.42,-0.48 4.87,-0.96 7.34,-1.46 1.24,-0.22 2.47,-0.55 3.7,-0.86 l 1.85,-0.47 0.36,-0.09 v 0 c 0,0 -0.05,0 -0.02,0 h 0.02 l -0.23,0.12 c -1.1,0.63 -2.19,1.27 -3.31,1.86 -4.45,2.42 -9.04,4.58 -13.65,6.53 -9.24,3.83 -18.52,6.84 -27.18,9 -2.17,0.51 -4.3,1.02 -6.37,1.5 -1.97,0.4 -3.88,0.79 -5.74,1.17 -0.7,0.15 -1.36,0.28 -1.96,0.37 -1.2,0.21 -2.17,0.37 -2.82,0.49 -4.76,0.89 -7.41,1.68 -11.31,3.26 z"
           id="path29"
           style="fill:#010101" />
        <path
           class="cls-39"
           d="m 565.89,413.38 c 12.62,15.85 21.91,34.41 28.91,53.35 7.76,21.02 12.88,43.15 14.64,65.5 1.68,21.29 0.43,43.15 -6.17,63.57 -6.6,20.42 -20.35,39.2 -39.19,50.94 -18.84,11.74 -42.43,16.45 -64.63,15.59 -20.97,-0.81 -41.39,-7.07 -59.89,-16.8 -18.5,-9.73 -33.73,-21.6 -48.13,-35.45 -12.71,-12.22 -24.26,-25.68 -34.5,-40.04 -14.63,-20.52 -26.4,-43.07 -35.03,-66.73 -8.63,-23.66 -14.61,-50.06 -16.38,-76.01 -0.43,-6.28 -0.62,-12.58 -0.58,-18.87 0.02,-3.08 -4.77,-3.08 -4.79,0 -0.15,26.6 3.88,53.21 11.39,78.71 7.51,25.5 18.36,49.75 32.42,72.12 10.13,16.12 21.95,31.25 35.04,45.07 13.88,14.66 29.38,27.95 46.53,38.65 18.06,11.26 38.19,19.61 59.32,22.74 22.46,3.33 46.5,1.16 67.56,-7.63 21.06,-8.79 39.23,-25.32 49.48,-46.09 9.65,-19.54 13.01,-41.87 13,-63.49 -0.01,-22.99 -3.85,-46.03 -10.45,-68.02 -6.2,-20.69 -14.89,-40.95 -26.81,-59.01 -2.61,-3.95 -5.4,-7.79 -8.35,-11.49 -0.81,-1.01 -2.54,-0.84 -3.38,0 -1,1 -0.81,2.37 0,3.38 v 0 z"
           id="path30"
           style="fill:#010101" />
        <path
           class="cls-16"
           d="M 453.96,685.14"
           id="path31"
           style="fill:none;stroke:#010101;stroke-width:0.6px;stroke-linecap:round;stroke-miterlimit:10" />
        <ellipse
           class="cls-9"
           cx="303.35999"
           cy="272.60001"
           rx="27.120001"
           ry="25.92"
           transform="rotate(-58.23,303.39078,272.60747)"
           id="ellipse31"
           style="fill:#ffffff;stroke:#231f20;stroke-width:3.68px;stroke-miterlimit:10" />
        <ellipse
           class="cls-36"
           cx="303.29999"
           cy="274.47"
           rx="19.190001"
           ry="18.879999"
           transform="rotate(-13.23,303.38731,274.54328)"
           id="ellipse32"
           style="fill:#231f20" />
        <circle
           class="cls-4"
           cx="293.03"
           cy="264.03"
           r="9.5"
           id="circle32"
           style="fill:#ffffff" />
        <ellipse
           class="cls-9"
           cx="557"
           cy="272.60001"
           rx="27.120001"
           ry="25.92"
           transform="rotate(-58.23,557.04978,272.60138)"
           id="ellipse33"
           style="fill:#ffffff;stroke:#231f20;stroke-width:3.68px;stroke-miterlimit:10" />
        <ellipse
           class="cls-36"
           cx="556.94"
           cy="274.47"
           rx="19.190001"
           ry="18.879999"
           transform="rotate(-13.23,557.12538,274.51885)"
           id="ellipse34"
           style="fill:#231f20" />
        <circle
           class="cls-4"
           cx="546.66998"
           cy="264.03"
           r="9.5"
           id="circle34"
           style="fill:#ffffff" />
        <g
           id="g40">
          <path
             class="cls-8"
             d="m 617.76,535.23 c 1.07,-0.89 1.71,-2.2 1.77,-3.59 l -1.48,-29.66 c 0.18,-4.21 -4.65,-6.68 -7.97,-4.09 -73.87,57.69 -179.65,95.3 -275.31,54.52 -2.11,-0.9 12.62,24.77 19.51,36.91 2.26,3.98 5.95,6.97 10.32,8.34 90.6,28.22 179.36,-1.05 253.16,-62.43 z"
             id="path34"
             style="fill:#ffffff;stroke:#010101;stroke-width:2.91px;stroke-linecap:round;stroke-miterlimit:10" />
          <circle
             id="circle35"
             class="cls-35"
             cx="490.57001"
             cy="578.53998"
             r="12.26"
             style="fill:url(#radialGradient60)" />
          <circle
             id="circle36"
             class="cls-29"
             cx="550.15002"
             cy="556.48999"
             r="12.26"
             style="fill:url(#radialGradient61)" />
          <circle
             id="circle37"
             class="cls-23"
             cx="598.52002"
             cy="528.21997"
             r="12.26"
             style="fill:url(#radialGradient62)" />
          <circle
             id="circle38"
             class="cls-32"
             cx="459.75"
             cy="585.29999"
             r="12.26"
             style="fill:url(#radialGradient63)" />
          <circle
             id="circle39"
             class="cls-33"
             cx="520.01001"
             cy="570.53003"
             r="12.26"
             style="fill:url(#radialGradient64)" />
          <circle
             id="circle40"
             class="cls-25"
             cx="575.35999"
             cy="543.95001"
             r="12.26"
             style="fill:url(#radialGradient65)" />
        </g>
        <g
           id="g45">
          <g
             id="g42">
            <ellipse
               class="cls-4"
               cx="372.45001"
               cy="600.06"
               rx="49.810001"
               ry="25.889999"
               id="ellipse40"
               style="fill:#ffffff" />
            <ellipse
               class="cls-6"
               cx="372.45001"
               cy="600.06"
               rx="49.810001"
               ry="25.889999"
               id="ellipse41"
               style="fill:#ffffff;stroke:#231f20;stroke-width:2.26px;stroke-linecap:round;stroke-miterlimit:10" />
            <ellipse
               class="cls-21"
               cx="372.45001"
               cy="600.06"
               rx="49.810001"
               ry="25.889999"
               id="ellipse42"
               style="fill:none;stroke:#010101;stroke-width:3.06px;stroke-linecap:round;stroke-miterlimit:10" />
          </g>
          <path
             class="cls-7"
             d="m 317.22,591.5 c -0.18,1.69 -0.27,3.4 -0.27,5.13 0,28.66 24.85,51.89 55.5,51.89 30.65,0 55.5,-23.23 55.5,-51.89 0,-1.73 -0.09,-3.44 -0.27,-5.13 z"
             id="path42"
             style="fill:#ffffff;stroke:#010101;stroke-width:3.06px;stroke-linecap:round;stroke-miterlimit:10" />
          <g
             id="g44">
            <circle
               class="cls-12"
               cx="352.14001"
               cy="616.92999"
               r="6.8400002"
               id="circle42"
               style="fill:none;stroke:#231f20;stroke-width:1.6px;stroke-linecap:round;stroke-miterlimit:10" />
            <circle
               class="cls-12"
               cx="372.45001"
               cy="616.92999"
               r="6.8400002"
               id="circle43"
               style="fill:none;stroke:#231f20;stroke-width:1.6px;stroke-linecap:round;stroke-miterlimit:10" />
            <circle
               class="cls-12"
               cx="392.76001"
               cy="616.92999"
               r="6.8400002"
               id="circle44"
               style="fill:none;stroke:#231f20;stroke-width:1.6px;stroke-linecap:round;stroke-miterlimit:10" />
          </g>
          <line
             class="cls-3"
             x1="427.76999"
             y1="600.34998"
             x2="317.14001"
             y2="600.34998"
             id="line44"
             style="fill:#ffffff;stroke:#231f20;stroke-width:1.82px;stroke-linecap:round;stroke-miterlimit:10" />
          <line
             class="cls-3"
             x1="427.76999"
             y1="604.10999"
             x2="317.14001"
             y2="604.10999"
             id="line45"
             style="fill:#ffffff;stroke:#231f20;stroke-width:1.82px;stroke-linecap:round;stroke-miterlimit:10" />
        </g>
        <path
           class="cls-39"
           d="m 529.26,425.61 c 6.74,-0.66 11.23,-1.29 18.67,-3.88 1.01,-0.35 2.51,-0.89 4.39,-1.55 0.93,-0.33 1.96,-0.7 3.06,-1.1 3.06,-1.12 6.17,-2.25 9.33,-3.41 3.6,-1.34 7.24,-2.72 10.93,-4.16 7.37,-2.88 14.89,-5.97 22.5,-9.38 15.19,-6.82 30.8,-14.79 45.62,-25.12 7.39,-5.18 14.56,-10.97 21.12,-17.59 6.55,-6.61 12.49,-14.08 17.18,-22.42 0.63,-1.02 1.16,-2.09 1.68,-3.17 l 1.59,-3.23 c 0.52,-1.08 0.92,-2.22 1.39,-3.33 0.44,-1.12 0.93,-2.22 1.32,-3.37 l 1.09,-3.46 c 0.36,-1.15 0.76,-2.3 0.99,-3.49 0.51,-2.37 1.19,-4.69 1.47,-7.12 1.53,-9.61 1.09,-19.66 -1.56,-29.06 -2.55,-9.43 -6.76,-18.31 -12,-26.37 -5.2,-8.09 -11.27,-15.56 -17.75,-22.39 l -2.41,-2.54 -2.32,-2.59 c -1.59,-1.74 -3.2,-3.46 -4.83,-5.14 -3.28,-3.37 -6.64,-6.62 -10.09,-9.75 -6.89,-6.26 -14.08,-12.05 -21.44,-17.4 -14.72,-10.69 -30.12,-19.67 -45.45,-26.97 -1.91,-0.93 -3.81,-1.85 -5.7,-2.77 -0.94,-0.46 -1.89,-0.92 -2.83,-1.37 -0.95,-0.44 -1.91,-0.84 -2.86,-1.27 -3.81,-1.67 -7.57,-3.32 -11.29,-4.95 -3.76,-1.53 -7.52,-2.94 -11.2,-4.39 -1.85,-0.69 -3.65,-1.49 -5.52,-2.08 -1.85,-0.62 -3.69,-1.24 -5.51,-1.85 -1.82,-0.61 -3.63,-1.22 -5.43,-1.82 -0.9,-0.3 -1.79,-0.6 -2.68,-0.9 -0.9,-0.26 -1.81,-0.51 -2.7,-0.76 -3.59,-1.01 -7.12,-2 -10.58,-2.97 -1.72,-0.52 -3.47,-0.88 -5.19,-1.27 -1.72,-0.39 -3.43,-0.77 -5.12,-1.15 -3.39,-0.72 -6.67,-1.6 -9.97,-2.06 -6.56,-1.05 -12.8,-2.27 -18.81,-2.76 -3,-0.32 -5.91,-0.63 -8.74,-0.93 -1.41,-0.19 -2.82,-0.18 -4.19,-0.27 -1.38,-0.07 -2.74,-0.13 -4.07,-0.19 -2.67,-0.13 -5.25,-0.25 -7.74,-0.37 -0.62,-0.02 -1.24,-0.07 -1.85,-0.07 -0.61,0 -1.22,0.01 -1.82,0.02 -1.2,0.01 -2.37,0.03 -3.52,0.04 -2.3,0.03 -4.51,0.05 -6.61,0.07 -1.05,0.01 -2.08,0.02 -3.08,0.03 -0.5,0 -1,0.01 -1.48,0.02 -0.49,0.03 -0.97,0.06 -1.44,0.1 -3.79,0.26 -7.17,0.5 -10.11,0.7 -1.47,0.1 -2.82,0.2 -4.07,0.28 -0.62,0.04 -1.21,0.08 -1.78,0.12 -0.56,0.07 -1.09,0.14 -1.59,0.2 -4.01,0.5 -6.13,0.77 -6.13,0.77 0,0 -2.12,0.27 -6.13,0.77 -1,0.13 -2.12,0.27 -3.36,0.42 -1.23,0.16 -2.56,0.45 -4.01,0.7 -2.89,0.52 -6.22,1.13 -9.96,1.81 -14.87,2.98 -36.2,7.88 -61.09,16.92 -12.48,4.35 -25.9,9.56 -39.97,15.69 -14.03,6.2 -28.71,13.4 -43.19,22.43 -7.23,4.52 -14.4,9.52 -21.27,15.17 -6.85,5.66 -13.48,11.92 -19.25,19.13 -1.41,1.83 -2.89,3.61 -4.17,5.56 -0.66,0.96 -1.34,1.91 -1.98,2.88 l -1.83,3 -0.92,1.5 -0.83,1.56 -1.65,3.13 c -0.51,1.06 -0.97,2.16 -1.46,3.24 -0.48,1.08 -0.99,2.16 -1.36,3.29 l -1.23,3.36 c -0.4,1.12 -0.68,2.29 -1.02,3.44 -0.73,2.28 -1.14,4.65 -1.64,7 -0.27,1.17 -0.35,2.38 -0.53,3.57 -0.13,1.2 -0.37,2.38 -0.41,3.59 -0.11,2.41 -0.33,4.82 -0.25,7.23 0.11,9.67 2.17,19.35 5.81,28.35 3.62,9.01 8.74,17.34 14.64,24.94 5.91,7.61 12.61,14.5 19.71,20.83 7.1,6.34 14.59,12.13 22.27,17.5 15.37,10.74 31.43,19.86 47.36,27.99 7.97,4.06 15.92,7.87 23.79,11.46 3.93,1.8 7.85,3.55 11.73,5.25 1.95,0.84 3.88,1.68 5.81,2.52 1.61,0.68 3.2,1.36 4.79,2.04 4.8,2.03 8.75,3.65 10.72,4.45 7.3,2.96 11.78,3.8 18.48,4.73 -5.49,-3.97 -9.29,-6.44 -16.53,-9.46 -1.96,-0.82 -5.88,-2.46 -10.66,-4.47 -1.58,-0.67 -3.17,-1.35 -4.77,-2.03 -1.91,-0.83 -3.84,-1.67 -5.77,-2.51 -3.86,-1.69 -7.75,-3.42 -11.66,-5.21 -7.81,-3.57 -15.7,-7.35 -23.6,-11.37 -15.78,-8.05 -31.65,-17.07 -46.75,-27.62 -7.54,-5.27 -14.88,-10.94 -21.79,-17.12 -6.92,-6.16 -13.41,-12.85 -19.08,-20.15 -5.67,-7.29 -10.52,-15.22 -13.93,-23.7 -3.42,-8.46 -5.33,-17.48 -5.44,-26.49 -0.08,-2.26 0.13,-4.5 0.23,-6.75 0.03,-1.12 0.26,-2.23 0.38,-3.34 0.17,-1.11 0.23,-2.23 0.49,-3.32 0.47,-2.19 0.84,-4.39 1.53,-6.52 0.32,-1.07 0.57,-2.15 0.95,-3.2 l 1.15,-3.14 c 0.35,-1.06 0.82,-2.06 1.28,-3.08 0.46,-1.01 0.89,-2.03 1.37,-3.03 l 1.55,-2.94 0.78,-1.47 0.87,-1.42 1.73,-2.83 c 0.61,-0.92 1.26,-1.82 1.88,-2.73 1.21,-1.84 2.63,-3.54 3.97,-5.28 5.5,-6.87 11.88,-12.9 18.51,-18.39 6.66,-5.47 13.65,-10.35 20.73,-14.78 14.18,-8.85 28.65,-15.96 42.53,-22.09 13.91,-6.06 27.24,-11.24 39.62,-15.56 24.65,-8.95 45.69,-13.78 60.35,-16.72 3.68,-0.67 6.96,-1.26 9.81,-1.78 1.43,-0.25 2.74,-0.53 3.95,-0.69 1.21,-0.15 2.32,-0.29 3.3,-0.42 3.95,-0.5 6.04,-0.76 6.04,-0.76 0,0 2.09,-0.26 6.04,-0.76 0.49,-0.06 1.02,-0.13 1.57,-0.2 0.55,-0.04 1.14,-0.08 1.75,-0.12 1.22,-0.08 2.55,-0.18 4,-0.27 2.89,-0.2 6.21,-0.43 9.94,-0.69 0.47,-0.03 0.94,-0.06 1.42,-0.09 0.48,0 0.97,-0.01 1.46,-0.02 0.98,-0.01 1.99,-0.02 3.03,-0.03 2.07,-0.02 4.23,-0.05 6.5,-0.07 1.13,-0.01 2.28,-0.03 3.46,-0.04 0.59,0 1.18,-0.01 1.78,-0.02 0.6,0 1.2,0.05 1.81,0.07 2.44,0.12 4.98,0.24 7.6,0.36 1.31,0.06 2.64,0.13 4,0.19 1.35,0.08 2.73,0.08 4.12,0.27 2.78,0.3 5.64,0.6 8.58,0.92 5.9,0.47 12.02,1.68 18.46,2.71 3.23,0.45 6.46,1.31 9.79,2.02 1.66,0.37 3.34,0.75 5.03,1.13 1.69,0.38 3.41,0.73 5.1,1.25 3.41,0.96 6.88,1.93 10.4,2.92 0.88,0.25 1.77,0.5 2.66,0.75 0.88,0.29 1.76,0.59 2.64,0.89 1.77,0.59 3.55,1.19 5.34,1.8 1.79,0.6 3.6,1.21 5.42,1.82 1.83,0.58 3.61,1.37 5.43,2.05 3.63,1.43 7.33,2.82 11.04,4.33 3.67,1.61 7.38,3.24 11.14,4.89 0.94,0.42 1.89,0.82 2.82,1.25 0.93,0.45 1.86,0.9 2.79,1.36 1.87,0.91 3.75,1.82 5.63,2.73 30.2,14.46 60.62,35.17 85.01,63.27 6.37,6.73 12.2,13.92 17.19,21.67 5.03,7.72 8.98,16.12 11.36,24.92 2.48,8.78 2.86,18.01 1.45,26.92 -0.24,2.24 -0.9,4.44 -1.37,6.66 -0.22,1.12 -0.59,2.19 -0.93,3.27 l -1.02,3.24 c -0.37,1.07 -0.83,2.1 -1.24,3.15 -0.44,1.04 -0.81,2.11 -1.3,3.13 l -1.5,3.04 c -0.49,1.02 -0.98,2.03 -1.58,2.99 -4.42,7.86 -10.06,14.96 -16.34,21.3 -6.29,6.35 -13.22,11.96 -20.41,17 -14.42,10.06 -29.77,17.91 -44.77,24.64 -7.51,3.36 -14.96,6.43 -22.27,9.28 -3.66,1.42 -7.27,2.8 -10.85,4.13 -3.14,1.15 -6.24,2.28 -9.28,3.39 -1.09,0.39 -2.11,0.76 -3.04,1.1 -1.86,0.67 -3.36,1.21 -4.36,1.56 -7.39,2.66 -11.31,4.96 -16.96,8.7 z"
           id="path45"
           style="fill:#010101" />
      </g>
    </g>
  </g>
</svg>
