<?xml version="1.0" ?><!DOCTYPE svg  PUBLIC '-//W3C//DTD SVG 1.1//EN'  'http://www.w3.org/Graphics/SVG/1.1/DTD/svg11.dtd'><svg height="43.3492mm" style="shape-rendering:geometricPrecision; text-rendering:geometricPrecision; image-rendering:optimizeQuality; fill-rule:evenodd; clip-rule:evenodd" version="1.1" viewBox="0 0 4335 4335" width="43.3492mm" xml:space="preserve" xmlns="http://www.w3.org/2000/svg" xmlns:xlink="http://www.w3.org/1999/xlink"><defs><style type="text/css">
   <![CDATA[
    .dragon-head-fill {fill:green}
   ]]>
  </style></defs><g><path class="dragon-head-fill" d="M577 1824c22,-37 60,-92 98,-110 60,-29 105,42 114,86 -117,-21 -120,-9 -212,24zm2953 2391l-2467 0c427,-580 1127,-908 1545,-1427l57 -77c62,-83 108,-198 71,-309 -32,-98 -70,-99 -110,-158l87 -64c646,-835 -92,-6 -129,21 -205,148 -252,56 -464,8 -131,-30 -274,14 -367,59l-150 79c-46,28 -92,57 -135,88 -87,64 -164,139 -258,193 -77,44 -183,55 -278,62 -105,8 -191,35 -287,-3 -35,-14 -114,-66 -131,-92 80,0 186,-14 246,-33 190,-59 362,-195 502,-334l113 -98c92,-72 185,-142 290,-195 18,-9 30,-16 48,-24 18,-8 29,-11 47,-20l186 -87c-26,-39 -112,-88 -162,-95 -151,-22 -428,89 -566,181 -101,68 -187,180 -281,226 -39,19 -146,56 -174,77 -70,52 -32,125 -32,196 -61,-14 -134,-92 -139,-156 -12,6 -126,18 -147,21 -152,21 -45,116 -81,152 -12,12 0,5 -11,0 -30,-13 -53,-55 -60,-86 -8,-36 1,-32 -20,-58 -259,-71 -90,-472 -76,-491 39,-52 114,-101 177,-67 15,8 42,29 57,32 83,18 137,-37 184,-81 107,-100 145,-21 191,-31 48,-10 166,-104 210,-147 24,-23 110,-116 126,-142l185 -261c68,-86 25,-38 41,-126 59,-319 421,-380 762,-241 56,-5 69,0 101,-32 116,-114 250,-205 396,-278 95,-48 303,-141 399,-141 -6,5 -11,9 -19,15 -7,5 -10,6 -18,10 -88,44 -169,106 -247,165l-66 57c-11,11 -21,20 -31,31l-78 95c-13,15 -39,54 -43,74 27,2 50,4 84,6 81,4 63,35 119,-32 54,-64 149,-134 220,-176 85,-50 172,-95 262,-134 20,-8 39,-13 58,-21 73,-29 168,-60 245,-67 -13,19 -18,17 -39,28 -127,64 -246,149 -347,249l-62 67c-12,14 -20,20 -32,35 -24,31 -74,74 -84,111 15,7 56,17 74,21 90,23 194,59 277,96 20,9 42,15 63,26 169,82 350,166 474,312 21,25 46,45 54,80 -97,-51 -120,-106 -268,-106 15,28 34,45 54,69 497,584 673,1595 403,2267 -68,169 -62,79 -61,-22 0,-84 -39,-279 -112,-295 0,84 -22,190 -42,270 -22,86 -44,159 -74,233 -70,174 -166,338 -262,499zm-2058 -2802c18,-18 34,-28 50,-45 73,-248 185,-275 395,-143 -16,46 -362,182 -445,188z"/></g></svg>
