<?xml version="1.0" encoding="UTF-8" standalone="no"?>
<!-- Generator: Adobe Illustrator 19.2.1, SVG Export Plug-In . SVG Version: 6.00 Build 0)  -->

<svg
   xmlns:dc="http://purl.org/dc/elements/1.1/"
   xmlns:cc="http://creativecommons.org/ns#"
   xmlns:rdf="http://www.w3.org/1999/02/22-rdf-syntax-ns#"
   xmlns:svg="http://www.w3.org/2000/svg"
   xmlns="http://www.w3.org/2000/svg"
   xmlns:sodipodi="http://sodipodi.sourceforge.net/DTD/sodipodi-0.dtd"
   xmlns:inkscape="http://www.inkscape.org/namespaces/inkscape"
   version="1.1"
   id="Layer_1"
   x="0px"
   y="0px"
   viewBox="0 0 425.62498 144.375"
   xml:space="preserve"
   inkscape:version="0.92.0 r"
   sodipodi:docname="ogs_dark.svg"
   width="454"
   height="154"><metadata
     id="metadata35"><rdf:RDF><cc:Work
         rdf:about=""><dc:format>image/svg+xml</dc:format><dc:type
           rdf:resource="http://purl.org/dc/dcmitype/StillImage" /><dc:title></dc:title></cc:Work></rdf:RDF></metadata><defs
     id="defs33" /><sodipodi:namedview
     pagecolor="#ffffff"
     bordercolor="#666666"
     borderopacity="1"
     objecttolerance="10"
     gridtolerance="10"
     guidetolerance="10"
     inkscape:pageopacity="0"
     inkscape:pageshadow="2"
     inkscape:window-width="1960"
     inkscape:window-height="1568"
     id="namedview31"
     showgrid="false"
     fit-margin-top="0"
     fit-margin-left="0"
     fit-margin-right="0"
     fit-margin-bottom="0"
     inkscape:zoom="1.7841791"
     inkscape:cx="-8.5948686"
     inkscape:cy="86.634419"
     inkscape:window-x="1200"
     inkscape:window-y="14"
     inkscape:window-maximized="0"
     inkscape:current-layer="g4" /><g
     id="OGS_Logo"
     transform="translate(0.006,-30.776996)"><g
       style="enable-background:new"
       id="g4"><path
         d="m 236.503,31.93 c 28.915,0 47.145,13.8 57.831,30.073 l -24.725,13.183 c -6.496,-9.681 -18.439,-17.302 -33.106,-17.302 -25.354,0 -43.793,19.156 -43.793,45.109 0,25.953 18.439,45.109 43.793,45.109 12.781,0 24.097,-5.149 30.173,-10.505 V 120.912 H 229.379 V 95.784 h 66.632 v 52.524 c -14.249,15.654 -34.154,25.953 -59.508,25.953 -40.859,0 -74.385,-28.013 -74.385,-71.269 0,-43.461 33.526,-71.062 74.385,-71.062 z"
         id="path6"
         inkscape:connector-curvature="0"
         style="fill:#dededd;fill-opacity:1" /><path
         d="m 326.386,129.976 c 9.849,10.093 25.145,18.538 44.421,18.538 16.344,0 24.307,-7.621 24.307,-15.448 0,-10.299 -12.153,-13.801 -28.287,-17.509 -22.84,-5.149 -52.174,-11.329 -52.174,-42.02 0,-22.863 20.115,-41.401 53.012,-41.401 22.211,0 40.649,6.591 54.479,19.156 L 405.59,72.714 C 394.275,62.415 379.189,57.677 365.569,57.677 c -13.41,0 -20.534,5.768 -20.534,14.007 0,9.269 11.734,12.153 27.868,15.86 23.049,5.149 52.384,11.947 52.384,42.432 0,25.129 -18.229,44.079 -55.946,44.079 -26.82,0 -46.097,-8.857 -59.088,-21.834 z"
         id="path8"
         inkscape:connector-curvature="0"
         style="fill:#dededd;fill-opacity:1" /></g><g
       id="g10"><g
         id="XMLID_3_"><g
           id="g13"><g
             id="XMLID_4_"><g
               id="g16"><path
                 style="fill:#010101"
                 d="m 144.324,102.987 c 0,39.855 -32.31,72.165 -72.165,72.165 -39.855,0 -72.165,-32.31 -72.165,-72.165 0,0 144.33,0 144.33,0 z"
                 id="path18"
                 inkscape:connector-curvature="0" /><path
                 style="fill:#dededd"
                 d="m 72.159,30.822 c 39.855,0 72.165,32.31 72.165,72.165 H -0.006 c 0,-39.855 32.31,-72.165 72.165,-72.165 z"
                 id="path20"
                 inkscape:connector-curvature="0" /></g></g></g></g><g
         id="g22"><path
           style="fill:#ffffff"
           d="m 9.821,95.52 c 0,0 -0.073,-0.322 -0.144,-0.925 -0.061,-0.601 -0.179,-1.497 -0.206,-2.624 -0.076,-2.257 0.037,-5.492 0.733,-9.296 0.334,-1.906 0.836,-3.942 1.473,-6.075 0.675,-2.116 1.457,-4.344 2.491,-6.559 0.998,-2.231 2.197,-4.475 3.589,-6.657 1.385,-2.187 2.932,-4.337 4.674,-6.337 0.839,-1.024 1.791,-1.96 2.703,-2.916 0.936,-0.936 1.93,-1.811 2.903,-2.683 2.018,-1.676 4.112,-3.195 6.251,-4.477 2.132,-1.294 4.307,-2.341 6.404,-3.204 1.072,-0.39 2.095,-0.789 3.103,-1.123 1.033,-0.28 2.016,-0.563 2.967,-0.799 1.917,-0.433 3.689,-0.716 5.262,-0.868 1.591,-0.099 2.944,-0.215 4.086,-0.155 1.135,0.035 2.029,0.137 2.628,0.176 0.602,0.053 0.923,0.102 0.923,0.102 0,0 -0.273,0.193 -0.785,0.516 -0.515,0.309 -1.255,0.807 -2.199,1.345 -0.944,0.543 -2.042,1.304 -3.307,2.052 -0.636,0.367 -1.278,0.832 -1.961,1.281 -0.673,0.473 -1.42,0.86 -2.125,1.413 -0.719,0.52 -1.475,1.027 -2.243,1.563 -0.746,0.561 -1.517,1.141 -2.31,1.737 -1.559,1.206 -3.15,2.504 -4.738,3.89 -0.8,0.683 -1.565,1.439 -2.373,2.148 -0.787,0.738 -1.537,1.537 -2.337,2.283 -0.758,0.795 -1.523,1.596 -2.29,2.4 -0.722,0.85 -1.524,1.625 -2.222,2.505 -0.735,0.845 -1.461,1.698 -2.155,2.579 -0.713,0.863 -1.406,1.745 -2.082,2.63 -0.668,0.897 -1.332,1.787 -1.987,2.666 -0.616,0.912 -1.274,1.784 -1.878,2.679 -1.234,1.771 -2.376,3.54 -3.476,5.231 -1.075,1.704 -2.114,3.332 -3.037,4.873 -1.88,3.066 -3.431,5.724 -4.55,7.614 -1.136,1.917 -1.785,3.015 -1.785,3.015 z"
           id="path24"
           inkscape:connector-curvature="0" /></g><g
         id="g26"><path
           style="fill:#272626"
           d="m 84.158,162.625 c 0,0 1.033,-0.747 2.84,-2.055 1.779,-1.289 4.282,-3.079 7.162,-5.233 1.449,-1.06 2.975,-2.245 4.572,-3.473 1.583,-1.252 3.239,-2.551 4.889,-3.943 0.835,-0.684 1.643,-1.419 2.494,-2.117 0.815,-0.733 1.64,-1.476 2.472,-2.224 0.819,-0.755 1.633,-1.527 2.427,-2.316 0.813,-0.773 1.597,-1.574 2.37,-2.384 0.812,-0.776 1.51,-1.647 2.29,-2.444 0.73,-0.838 1.457,-1.673 2.179,-2.501 0.669,-0.866 1.396,-1.687 2.058,-2.538 0.632,-0.87 1.314,-1.701 1.921,-2.561 1.234,-1.71 2.38,-3.413 3.437,-5.077 0.52,-0.844 1.027,-1.666 1.516,-2.46 0.463,-0.814 0.898,-1.613 1.35,-2.377 0.486,-0.753 0.802,-1.532 1.211,-2.246 0.384,-0.722 0.787,-1.404 1.094,-2.071 0.629,-1.329 1.285,-2.492 1.739,-3.482 0.449,-0.99 0.876,-1.772 1.136,-2.314 0.274,-0.54 0.441,-0.829 0.441,-0.829 0,0 0.079,0.316 0.187,0.91 0.095,0.593 0.279,1.473 0.418,2.601 0.165,1.131 0.175,2.49 0.223,4.083 -0.006,1.58 -0.125,3.372 -0.379,5.32 -0.148,0.969 -0.339,1.974 -0.522,3.029 -0.24,1.034 -0.543,2.09 -0.832,3.193 -0.667,2.168 -1.508,4.43 -2.601,6.672 -1.08,2.248 -2.399,4.474 -3.882,6.638 -0.779,1.05 -1.559,2.12 -2.404,3.138 -0.868,0.995 -1.712,2.03 -2.654,2.96 -1.832,1.919 -3.829,3.658 -5.88,5.238 -2.044,1.587 -4.169,2.987 -6.298,4.187 -2.11,1.234 -4.257,2.218 -6.301,3.085 -2.066,0.831 -4.047,1.518 -5.914,2.026 -3.724,1.043 -6.935,1.454 -9.189,1.587 -1.126,0.077 -2.028,0.042 -2.632,0.037 -0.611,-0.016 -0.938,-0.059 -0.938,-0.059 z"
           id="path28"
           inkscape:connector-curvature="0" /></g></g></g><g
     id="Layer_1_1_"
     transform="translate(0.006,-30.776996)" /></svg>