<?xml version="1.0" encoding="iso-8859-1"?>
<!-- Generator: Adobe Illustrator 19.2.1, SVG Export Plug-In . SVG Version: 6.00 Build 0)  -->
<svg version="1.1" id="Layer_1" xmlns="http://www.w3.org/2000/svg" xmlns:xlink="http://www.w3.org/1999/xlink" x="0px" y="0px"
	 viewBox="0 0 431.571 241.001" style="enable-background:new 0 0 431.571 241.001;" xml:space="preserve">
<g id="OGS_Logo">
	<g style="enable-background:new    ;">
		<path d="M236.503,31.93c28.915,0,47.145,13.8,57.831,30.073l-24.725,13.183c-6.496-9.681-18.439-17.302-33.106-17.302
			c-25.354,0-43.793,19.156-43.793,45.109s18.439,45.109,43.793,45.109c12.781,0,24.097-5.149,30.173-10.505v-16.685h-37.297V95.784
			h66.632v52.524c-14.249,15.654-34.154,25.953-59.508,25.953c-40.859,0-74.385-28.013-74.385-71.269
			C162.118,59.531,195.644,31.93,236.503,31.93z"/>
		<path d="M326.386,129.976c9.849,10.093,25.145,18.538,44.421,18.538c16.344,0,24.307-7.621,24.307-15.448
			c0-10.299-12.153-13.801-28.287-17.509c-22.84-5.149-52.174-11.329-52.174-42.02c0-22.863,20.115-41.401,53.012-41.401
			c22.211,0,40.649,6.591,54.479,19.156L405.59,72.714c-11.315-10.299-26.401-15.037-40.021-15.037
			c-13.41,0-20.534,5.768-20.534,14.007c0,9.269,11.734,12.153,27.868,15.86c23.049,5.149,52.384,11.947,52.384,42.432
			c0,25.129-18.229,44.079-55.946,44.079c-26.82,0-46.097-8.857-59.088-21.834L326.386,129.976z"/>
	</g>
	<g>
		<g id="XMLID_3_">
			<g>
				<g id="XMLID_4_">
					<g>
						<path style="fill:#010101;" d="M144.324,102.987c0,39.855-32.31,72.165-72.165,72.165s-72.165-32.31-72.165-72.165
							C-0.006,102.987,144.324,102.987,144.324,102.987z"/>
						<path style="fill:#DEDEDD;" d="M72.159,30.822c39.855,0,72.165,32.31,72.165,72.165H-0.006
							C-0.006,63.132,32.304,30.822,72.159,30.822z"/>
					</g>
				</g>
			</g>
		</g>
		<g>
			<path style="fill:#FFFFFF;" d="M9.821,95.52c0,0-0.073-0.322-0.144-0.925c-0.061-0.601-0.179-1.497-0.206-2.624
				c-0.076-2.257,0.037-5.492,0.733-9.296c0.334-1.906,0.836-3.942,1.473-6.075c0.675-2.116,1.457-4.344,2.491-6.559
				c0.998-2.231,2.197-4.475,3.589-6.657c1.385-2.187,2.932-4.337,4.674-6.337c0.839-1.024,1.791-1.96,2.703-2.916
				c0.936-0.936,1.93-1.811,2.903-2.683c2.018-1.676,4.112-3.195,6.251-4.477c2.132-1.294,4.307-2.341,6.404-3.204
				c1.072-0.39,2.095-0.789,3.103-1.123c1.033-0.28,2.016-0.563,2.967-0.799c1.917-0.433,3.689-0.716,5.262-0.868
				c1.591-0.099,2.944-0.215,4.086-0.155c1.135,0.035,2.029,0.137,2.628,0.176c0.602,0.053,0.923,0.102,0.923,0.102
				s-0.273,0.193-0.785,0.516c-0.515,0.309-1.255,0.807-2.199,1.345c-0.944,0.543-2.042,1.304-3.307,2.052
				c-0.636,0.367-1.278,0.832-1.961,1.281c-0.673,0.473-1.42,0.86-2.125,1.413c-0.719,0.52-1.475,1.027-2.243,1.563
				c-0.746,0.561-1.517,1.141-2.31,1.737c-1.559,1.206-3.15,2.504-4.738,3.89c-0.8,0.683-1.565,1.439-2.373,2.148
				c-0.787,0.738-1.537,1.537-2.337,2.283c-0.758,0.795-1.523,1.596-2.29,2.4c-0.722,0.85-1.524,1.625-2.222,2.505
				c-0.735,0.845-1.461,1.698-2.155,2.579c-0.713,0.863-1.406,1.745-2.082,2.63c-0.668,0.897-1.332,1.787-1.987,2.666
				c-0.616,0.912-1.274,1.784-1.878,2.679c-1.234,1.771-2.376,3.54-3.476,5.231c-1.075,1.704-2.114,3.332-3.037,4.873
				c-1.88,3.066-3.431,5.724-4.55,7.614C10.47,94.422,9.821,95.52,9.821,95.52z"/>
		</g>
		<g>
			<path style="fill:#272626;" d="M84.158,162.625c0,0,1.033-0.747,2.84-2.055c1.779-1.289,4.282-3.079,7.162-5.233
				c1.449-1.06,2.975-2.245,4.572-3.473c1.583-1.252,3.239-2.551,4.889-3.943c0.835-0.684,1.643-1.419,2.494-2.117
				c0.815-0.733,1.64-1.476,2.472-2.224c0.819-0.755,1.633-1.527,2.427-2.316c0.813-0.773,1.597-1.574,2.37-2.384
				c0.812-0.776,1.51-1.647,2.29-2.444c0.73-0.838,1.457-1.673,2.179-2.501c0.669-0.866,1.396-1.687,2.058-2.538
				c0.632-0.87,1.314-1.701,1.921-2.561c1.234-1.71,2.38-3.413,3.437-5.077c0.52-0.844,1.027-1.666,1.516-2.46
				c0.463-0.814,0.898-1.613,1.35-2.377c0.486-0.753,0.802-1.532,1.211-2.246c0.384-0.722,0.787-1.404,1.094-2.071
				c0.629-1.329,1.285-2.492,1.739-3.482c0.449-0.99,0.876-1.772,1.136-2.314c0.274-0.54,0.441-0.829,0.441-0.829
				s0.079,0.316,0.187,0.91c0.095,0.593,0.279,1.473,0.418,2.601c0.165,1.131,0.175,2.49,0.223,4.083
				c-0.006,1.58-0.125,3.372-0.379,5.32c-0.148,0.969-0.339,1.974-0.522,3.029c-0.24,1.034-0.543,2.09-0.832,3.193
				c-0.667,2.168-1.508,4.43-2.601,6.672c-1.08,2.248-2.399,4.474-3.882,6.638c-0.779,1.05-1.559,2.12-2.404,3.138
				c-0.868,0.995-1.712,2.03-2.654,2.96c-1.832,1.919-3.829,3.658-5.88,5.238c-2.044,1.587-4.169,2.987-6.298,4.187
				c-2.11,1.234-4.257,2.218-6.301,3.085c-2.066,0.831-4.047,1.518-5.914,2.026c-3.724,1.043-6.935,1.454-9.189,1.587
				c-1.126,0.077-2.028,0.042-2.632,0.037C84.485,162.668,84.158,162.625,84.158,162.625z"/>
		</g>
	</g>
</g>
<g id="Layer_1_1_">
</g>
</svg>
