<?xml version="1.0" encoding="utf-8"?>
<!-- Generator: Adobe Illustrator 27.2.0, SVG Export Plug-In . SVG Version: 6.00 Build 0)  -->
<svg version="1.1" id="Layer_1" xmlns="http://www.w3.org/2000/svg" xmlns:xlink="http://www.w3.org/1999/xlink" x="0px" y="0px"
	 viewBox="0 0 1140 380" style="enable-background:new 0 0 1140 380;" xml:space="preserve">
<style type="text/css">
	.st0{fill:#FFFFFF;}
	.st1{fill:#9146FF;}
</style>
<rect x="490" y="-500.7" class="st0" width="80" height="50"/>
<g>
	<path class="st1" d="M1090,70h-50V0H930.2l-50.5,70H790l-30,30V70h-70V0H470v70H160.5L110,0H0v240l140,140h140v-40l40,40h270v-40
		l40,40h130v-40l40,40h250l90-90V120L1090,70z M170,170h-70v20h70v80H60l-40-40V20h80v70h70V170z M470,270H230l-40-40V90h80v100h20
		V90h80v100h20V90h80V270z M570,270h-80V90h80V270z M570,70h-80V20h80V70z M740,170h-70v20h70v80H630l-40-40V20h80v70h70V170z
		 M920,170h-80v20h80v80H800l-40-40V130l40-40h120V170z M1120,270h-80V170h-20v100h-80V20h80v70h60l40,40V270z"/>
	<g>
		<polygon class="st0" points="170,170 100,170 100,190 170,190 170,270 60,270 20,230 20,20 100,20 100,90 170,90 		"/>
		<polygon class="st0" points="470,270 230,270 190,230 190,90 270,90 270,190 290,190 290,90 370,90 370,190 390,190 390,90 
			470,90 		"/>
		<rect x="490" y="90" class="st0" width="80" height="180"/>
		<polygon class="st0" points="740,170 670,170 670,190 740,190 740,270 630,270 590,230 590,20 670,20 670,90 740,90 		"/>
		<polygon class="st0" points="920,170 840,170 840,190 920,190 920,270 800,270 760,230 760,130 800,90 920,90 		"/>
		<polygon class="st0" points="1120,270 1040,270 1040,170 1020,170 1020,270 940,270 940,20 1020,20 1020,90 1080,90 1120,130 		
			"/>
	</g>
</g>
<g>
	<g id="Layer_1-2_00000062881281019284152720000015452844891277138364_">
		<polygon class="st1" points="1088.3,-891.4 1040.1,-891.4 1040.1,-961.4 920.1,-961.4 920.1,-891.4 791.7,-891.4 760,-859.6 
			760,-891.4 690,-891.4 690,-961.3 570,-961.4 570,-961.3 470,-961.3 470,-891.4 470,-891.4 190,-891.4 170,-891.4 120,-891.4 
			120,-961.3 0,-961.3 0,-723.1 51.7,-671.3 190,-671.3 190,-703.1 221.7,-671.3 490,-671.3 490,-671.3 590,-671.3 590,-703.1 
			621.7,-671.3 760,-671.3 760,-703.1 791.7,-671.3 940.1,-671.3 940.1,-671.3 1020,-671.3 1020,-671.3 1140,-671.3 1140,-839.6 		
			"/>
		<polygon class="st0" points="100,-871.4 100,-941.3 20,-941.3 20,-731.3 60,-691.3 170,-691.3 170,-771.4 100,-771.4 100,-791.4 
			170,-791.4 170,-871.4 		"/>
		<polygon class="st0" points="389.9,-871.4 389.9,-771.4 369.9,-771.4 369.9,-871.4 290,-871.4 290,-771.4 270,-771.4 270,-871.4 
			190,-871.4 190,-731.3 230,-691.3 470,-691.3 470,-871.4 		"/>
		<polygon class="st0" points="490,-871.4 570,-871.4 570,-691.3 490,-691.3 		"/>
		<polygon class="st0" points="490,-941.3 570,-941.3 570,-891.3 490,-891.3 		"/>
		<polygon class="st0" points="800,-871.4 760,-831.3 760,-731.3 800,-691.3 920.1,-691.3 920.1,-771.4 840,-771.4 840,-791.4 
			920.1,-791.4 920.1,-871.4 		"/>
		<polygon class="st0" points="1080,-871.4 1020.1,-871.4 1020.1,-941.4 940.1,-941.4 940.1,-691.3 1020,-691.3 1020,-791.4 
			1040,-791.4 1040,-691.3 1120,-691.3 1120,-831.3 		"/>
		<polygon class="st0" points="670,-871.4 670,-941.3 590,-941.4 590,-731.3 630,-691.3 740,-691.3 740,-771.3 670,-771.4 
			670,-791.4 740,-791.4 740,-871.4 		"/>
	</g>
</g>
<g>
	<g id="Layer_1-2_00000079465381663371690980000015421709487205495973_">
		<polygon class="st0" points="100,-1240.7 100,-1310.7 20,-1310.7 20,-1100.7 60,-1060.7 170,-1060.6 170,-1140.7 100,-1140.7 
			100,-1160.7 170,-1160.7 170,-1240.7 		"/>
		<polygon class="st0" points="389.9,-1240.7 389.9,-1140.7 369.9,-1140.7 369.9,-1240.7 290,-1240.7 290,-1140.7 270,-1140.7 
			270,-1240.7 190,-1240.7 190,-1100.7 230,-1060.7 470,-1060.6 470,-1240.7 		"/>
		<polygon class="st0" points="490,-1240.7 570,-1240.7 570,-1060.7 490,-1060.7 		"/>
		<polygon class="st0" points="490,-1310.7 570,-1310.7 570,-1260.6 490,-1260.6 		"/>
		<polygon class="st0" points="800,-1240.7 760,-1200.7 760,-1100.7 800,-1060.7 920.1,-1060.6 920.1,-1140.7 840,-1140.7 
			840,-1160.7 920.1,-1160.7 920.1,-1240.7 		"/>
		<polygon class="st0" points="1080,-1240.7 1020.1,-1240.7 1020.1,-1310.7 940.1,-1310.7 940.1,-1060.6 1020,-1060.6 1020,-1160.7 
			1040,-1160.7 1040,-1060.6 1120,-1060.7 1120,-1200.7 		"/>
		<polygon class="st0" points="670,-1240.7 670,-1310.7 590,-1310.7 590,-1100.7 630,-1060.7 740,-1060.7 740,-1140.7 670,-1140.7 
			670,-1160.7 740,-1160.7 740,-1240.7 		"/>
	</g>
</g>
<g>
	<g>
		
			<image style="overflow:visible;enable-background:new    ;" width="571" height="136" xlink:href="27C0BC2D6799EF31.png"  transform="matrix(0.9979 0 0 0.9979 1725.0206 -1023.7375)">
		</image>
	</g>
</g>
<g>
	<g>
		
			<image style="overflow:visible;enable-background:new    ;" width="571" height="136" xlink:href="27C0BC2D6799EF33.png"  transform="matrix(0.9979 0 0 0.9979 1725.0206 -855.1721)">
		</image>
	</g>
</g>
<g>
	<g>
		
			<image style="overflow:visible;enable-background:new    ;" width="571" height="136" xlink:href="27C0BC2D6799EF36.png"  transform="matrix(0.9979 0 0 0.9979 1725.0206 -518.0392)">
		</image>
	</g>
</g>
<g>
	<g>
		
			<image style="overflow:visible;enable-background:new    ;" width="571" height="136" xlink:href="27C0BC2D6799EF37.png"  transform="matrix(0.9979 0 0 0.9979 1725.0206 -349.4738)">
		</image>
	</g>
</g>
<g>
	<g>
		
			<image style="overflow:visible;enable-background:new    ;" width="571" height="136" xlink:href="27C0BC2D6799EF32.png"  transform="matrix(0.9979 0 0 0.9979 1725.0206 -686.6057)">
		</image>
	</g>
</g>
</svg>
