<?xml version="1.0" encoding="utf-8"?>
<svg viewBox="0 0 32 32" xmlns="http://www.w3.org/2000/svg"><g fill="none" fill-rule="evenodd"><path fill="#003663" d="M0 0h32v32H0z"></path><path fill="#FFF" d="M0 0h32v32H0z"></path><g fill-rule="nonzero"><path d="M27.419 7H4.214l-.241.004a3.506 3.506 0 0 0-.525.046c-.176.032-.34.084-.5.165a1.675 1.675 0 0 0-.733.734c-.082.16-.133.323-.165.499-.03.173-.041.35-.046.525L2 9.213V22.66c0 .08.002.16.004.241.005.175.015.352.046.525.032.176.083.34.165.499a1.67 1.67 0 0 0 .734.734c.16.081.323.133.499.164.173.031.35.042.525.047l.24.003h23.492l.242-.003c.174-.005.351-.016.525-.047.175-.031.339-.083.499-.164a1.667 1.667 0 0 0 .733-.734c.082-.16.133-.323.165-.5a3.48 3.48 0 0 0 .046-.524c.002-.08.003-.16.003-.241l.001-.287V9.5v-.286c0-.08-.002-.16-.004-.241a3.482 3.482 0 0 0-.046-.525 1.683 1.683 0 0 0-1.397-1.398 3.515 3.515 0 0 0-.525-.046l-.242-.003L27.42 7z" fill="#000"></path><path d="M27.419 7.596h.282c.076 0 .153.002.23.004.133.003.29.01.435.037.127.023.233.057.335.11a1.078 1.078 0 0 1 .473.473c.051.1.086.206.108.334.026.144.034.3.037.435l.004.23v13.438c0 .076-.002.152-.004.228-.003.134-.01.29-.037.436a1.156 1.156 0 0 1-.109.334 1.079 1.079 0 0 1-.473.473 1.166 1.166 0 0 1-.333.109 3.03 3.03 0 0 1-.434.037c-.077.002-.154.003-.232.003H4.217c-.077 0-.154-.001-.228-.003a3.035 3.035 0 0 1-.436-.037 1.17 1.17 0 0 1-.335-.11 1.069 1.069 0 0 1-.472-.472 1.17 1.17 0 0 1-.11-.335 2.947 2.947 0 0 1-.036-.435 11.135 11.135 0 0 1-.004-.229V9.218c0-.077.001-.153.004-.23.003-.133.01-.289.037-.435.022-.126.057-.232.109-.334a1.075 1.075 0 0 1 .473-.473c.101-.052.207-.086.334-.11.146-.025.302-.033.436-.036l.228-.004H27.42" fill="#FFF"></path><g fill="#000"><g><path d="M9.622 13.012c.239-.3.401-.7.358-1.111-.35.017-.777.23-1.024.53-.222.256-.418.675-.367 1.068.393.034.785-.197 1.033-.487M9.976 13.575c-.57-.034-1.056.324-1.328.324-.273 0-.69-.307-1.141-.298a1.682 1.682 0 0 0-1.43.869c-.613 1.056-.162 2.623.434 3.484.29.425.638.894 1.098.877.434-.017.605-.28 1.132-.28.528 0 .681.28 1.141.272.477-.009.775-.426 1.064-.852.333-.486.469-.954.477-.98-.008-.008-.92-.358-.928-1.405-.008-.878.715-1.295.75-1.32-.41-.605-1.048-.674-1.27-.69"></path></g><g><path d="M14.943 12.388c1.24 0 2.103.855 2.103 2.1 0 1.248-.88 2.107-2.134 2.107h-1.373v2.183h-.992v-6.39h2.396zm-1.404 3.375h1.138c.864 0 1.355-.465 1.355-1.271 0-.806-.491-1.267-1.35-1.267h-1.143v2.538zM17.306 17.454c0-.815.624-1.315 1.731-1.377l1.275-.075v-.359c0-.518-.35-.828-.934-.828-.554 0-.899.266-.983.682h-.903c.053-.842.77-1.462 1.921-1.462 1.13 0 1.851.598 1.851 1.533v3.21h-.916v-.766h-.022c-.27.518-.86.846-1.47.846-.913 0-1.55-.567-1.55-1.404zm3.006-.42v-.368l-1.147.07c-.57.04-.894.293-.894.692 0 .407.336.673.85.673.669 0 1.191-.46 1.191-1.067zM22.13 20.492v-.775c.07.018.23.018.31.018.443 0 .682-.186.828-.664 0-.01.084-.284.084-.288L21.67 14.12h1.036l1.179 3.79h.017l1.178-3.79h1.01l-1.745 4.902c-.398 1.13-.859 1.492-1.824 1.492a3.7 3.7 0 0 1-.39-.022z"></path></g></g></g></g></svg>
