<?xml version="1.0" encoding="utf-8"?>
<svg viewBox="0 0 32 33" xmlns="http://www.w3.org/2000/svg"><g fill="none" fill-rule="evenodd"><path d="M0 1h32v32H0z"></path><g fill-rule="nonzero"><path d="M27.865 17.087c0-.785-.065-1.57-.196-2.356H16.673v4.494h6.305a5.34 5.34 0 0 1-2.334 3.535v2.924h3.752a11.41 11.41 0 0 0 3.491-8.597h-.022z" fill="#4285F4"></path><path d="M16.673 28.498c3.142 0 5.803-1.025 7.723-2.814l-3.752-2.924a6.982 6.982 0 0 1-3.971 1.113 6.982 6.982 0 0 1-6.546-4.8H6.244v2.989a11.673 11.673 0 0 0 10.429 6.436z" fill="#34A853"></path><path d="M10.127 19.073a6.982 6.982 0 0 1 0-4.473v-3.01H6.244a11.673 11.673 0 0 0 0 10.472l3.883-2.99z" fill="#FBBC04"></path><path d="M16.673 9.8a6.327 6.327 0 0 1 4.472 1.745l3.339-3.338a11.673 11.673 0 0 0-18.24 3.382l3.883 3.011a6.982 6.982 0 0 1 6.546-4.8z" fill="#EA4335"></path></g></g></svg>
