<?xml version="1.0" encoding="utf-8"?>
<svg viewBox="0 0 32 32" xmlns="http://www.w3.org/2000/svg"><g fill="none" fill-rule="evenodd"><path d="M0 0h32v32H0z" fill="#10298d"></path><path d="M27.485 18.42h-2.749l-.37 1.342H22.24L24.533 12h3.104l2.325 7.762h-2.083l-.393-1.342zm-.408-1.512l-.963-3.364-.936 3.364zm-10.452 2.854V12h3.83c.526 0 .928.044 1.203.13.63.202 1.052.612 1.27 1.233.111.325.167.816.167 1.47 0 .788-.06 1.354-.183 1.699-.247.68-.753 1.072-1.517 1.175-.09.015-.472.028-1.146.04l-.341.011H18.68v2.004zm2.056-3.805h1.282c.407-.015.653-.047.744-.096.12-.068.202-.204.242-.408.026-.136.04-.337.04-.604 0-.329-.026-.573-.079-.732-.073-.222-.25-.358-.53-.407a3.91 3.91 0 0 0-.4-.011h-1.299zm-10.469-1.48H6.3c0-.32-.038-.534-.11-.642-.114-.162-.43-.242-.942-.242-.5 0-.831.046-.993.139-.161.093-.242.296-.242.608 0 .283.072.469.215.558a.91.91 0 0 0 .408.112l.386.026c.517.033 1.033.072 1.55.119.654.066 1.126.243 1.421.53.231.222.37.515.414.875.025.216.037.46.037.73 0 .626-.057 1.083-.175 1.374-.213.532-.693.868-1.437 1.009-.312.06-.788.089-1.43.089-1.072 0-1.819-.064-2.24-.196-.517-.158-.858-.482-1.024-.969-.092-.269-.137-.72-.137-1.353h1.914v.162c0 .337.096.554.287.65.13.067.29.101.477.106h.704c.359 0 .587-.019.687-.056a.57.57 0 0 0 .346-.34 1.38 1.38 0 0 0 .044-.374c0-.341-.123-.55-.368-.624-.092-.03-.52-.071-1.28-.123a15.411 15.411 0 0 1-1.274-.128c-.626-.119-1.044-.364-1.252-.736-.184-.315-.275-.793-.275-1.432 0-.487.05-.877.148-1.17.1-.294.258-.517.48-.669.321-.234.735-.371 1.237-.412.463-.04.927-.058 1.391-.056.803 0 1.375.046 1.717.14.833.227 1.248.863 1.248 1.909a5.8 5.8 0 0 1-.018.385z" fill="#fff"></path><path d="M13.786 13.092c.849 0 1.605.398 2.103 1.02l.444-.966a3.855 3.855 0 0 0-2.678-1.077c-1.62 0-3.006.995-3.575 2.402h-.865l-.51 1.111h1.111c-.018.23-.017.46.006.69h-.56l-.51 1.111h1.354a3.853 3.853 0 0 0 3.549 2.335c.803 0 1.55-.244 2.167-.662v-1.363a2.683 2.683 0 0 1-2.036.939 2.7 2.7 0 0 1-2.266-1.248h2.832l.511-1.112h-3.761a2.886 2.886 0 0 1-.016-.69h4.093l.51-1.11h-4.25a2.704 2.704 0 0 1 2.347-1.38" fill="#ffcc02"></path></g></svg>
