<?xml version="1.0" encoding="utf-8"?>
<svg viewBox="0 0 32 32" xmlns="http://www.w3.org/2000/svg"><g fill="none" fill-rule="evenodd"><path d="M0 0h32v32H0z" fill="#fff"></path><path d="M12.71 18.294a.782.782 0 0 1-.36.082.786.786 0 0 1-.694-.407l-.055-.109-2.192-4.666a.337.337 0 0 1-.027-.163.366.366 0 0 1 .11-.27.384.384 0 0 1 .278-.11c.09.003.176.031.25.082l2.58 1.79c.2.12.43.185.665.19.143 0 .284-.028.416-.08l12.096-5.264c-2.193-2.523-5.771-4.15-9.793-4.15C9.354 5.219 4 9.586 4 14.985c0 2.93 1.609 5.588 4.133 7.38a.698.698 0 0 1 .278.868c-.194.732-.527 1.927-.527 1.98a.956.956 0 0 0-.055.299.366.366 0 0 0 .11.27.39.39 0 0 0 .277.108.32.32 0 0 0 .222-.081l2.608-1.493a1.34 1.34 0 0 1 .638-.19c.122.005.243.023.36.055a14.2 14.2 0 0 0 3.912.543c6.602 0 11.983-4.367 11.983-9.766a8.44 8.44 0 0 0-1.359-4.53L12.794 18.24z" fill="#1aad19" fill-rule="nonzero"></path></g></svg>
